<?xml version="1.0" standalone="no"?><!DOCTYPE svg PUBLIC "-//W3C//DTD SVG 1.1//EN" "http://www.w3.org/Graphics/SVG/1.1/DTD/svg11.dtd"><svg class="icon" width="200px" height="200.00px" viewBox="0 0 1024 1024" version="1.1" xmlns="http://www.w3.org/2000/svg"><path d="M512 0c282.772 0 512 229.228 512 512S794.772 1024 512 1024 0 794.772 0 512 229.228 0 512 0z" fill="#B1E3FB" /><path d="M39.88 313.586h127.404c45.684 45.202 201.532 205.378 204.576 289.118 2.876 79.246 101.624 68.93 129.552 108.856-33.754 17.144-74.93 32.37-107.462 46.624-72.796 31.914-102.212 58.956-181.642 64.632-29.868 2.134-66.812 1.25-106.596 0.738C39.432 737.246 0 629.234 0 512c0-70.358 14.206-137.396 39.88-198.414z m944.24 0C1009.794 374.604 1024 441.642 1024 512c0 65.292-12.246 127.72-34.524 185.138a679.682 679.682 0 0 0-10.202-7.944c0.88-4.742 1.31-9.634 1.232-14.682a194.36 194.36 0 0 0-0.494-10.744c-10.574-149.664-416.26-260.256-271.994-290.674-46.284-31.322-115.432-48.36-172.556-59.506H984.12z" fill="#7EB953" /><path d="M140.96 159.198c48.112 9.524 100.014 28.014 143.424 38.638 58.594 14.334 101.732 14.334 134.584 20.55 32.844 6.218 55.396 18.66 84.812 28.404 29.42 9.726 65.7 16.758 100.018 29.2 34.314 12.442 66.676 30.286 99.272 40.566 32.61 10.276 65.452 12.978-119.374 18.66-127.51 3.922-358.606 9.246-556.406 11.466 24.122-70.726 63.276-134.498 113.67-187.484z" fill="#5E8345" /><path d="M688.248 209.894c7.482-26.232 51.838-36.238 81.994-59.496 19.1-14.734 32.49-34.786 44.204-51.52 79.15 58.044 140.984 138.28 176.378 231.54-116.13 7.098-251.634 14.872-311.652 1.714-96.204-21.092 1.596-96.006 9.076-122.238z" fill="#447B5D" /><path d="M422.322 283.4c40.434-19.2 84.566-45.702 118.142-72.746 33.58-27.038 56.628-54.622 71.334-60.578 14.71-5.946 21.078 9.74 31.868 20.562 10.79 10.812 25.984 16.762 45.102 22.444 19.126 5.68 42.166 11.088 71.334 20.552 29.178 9.464 64.472 22.984 97.814 45.436 33.334 22.444 64.714 53.816 99.034 77.34 10.418 7.142 26.044 11.976 41.45 15.384a504.856 504.856 0 0 1 4.352 13.9c-72.076 5.018-217.742 11.792-316.366 7.422-117.592-5.208-221.888-9.144-282.676-16.722-60.784-7.582-65.754-14.38-87.52-13.918-21.762 0.462 65.684-39.88 106.132-59.076z" fill="#598763" /><path d="M341.01 343.274c-1.33 1.608 2.556-2.562 0.206 0.554-6.834-1.406-12.48-2.172-20.286-2.006-0.078 0-0.16 0-0.234 0.008-40.132 0.844-81.596 1.644-123.258 2.374 29.896 31.096 70.522 75.576 105.052 121.192 37.644 49.726 68.046 100.788 69.37 137.308 2.396 65.856 70.982 69.86 110.142 92.23 4.994 2.876 9.51 6.034 13.354 9.666a44.668 44.668 0 0 1 6.056 6.958c-33.75 17.144-74.93 32.37-107.462 46.624-72.796 31.914-102.212 58.956-181.642 64.632-29.868 2.134-66.812 1.25-106.596 0.738C199.302 945.422 346.46 1024 512 1024c217.482 0 403.264-135.6 477.476-326.862a679.682 679.682 0 0 0-10.202-7.944c0.88-4.742 1.31-9.634 1.232-14.682a172.366 172.366 0 0 0-0.486-10.712c-7.922-112.796-110.948-152.488-179.42-198.406-22.394-15.012-41.09-30.69-51.558-49.812-9.062-16.544-23.374-30.558-41.02-42.492-5.76-0.178-11.398-0.386-16.892-0.628-117.596-5.214-221.888-9.144-282.68-16.726a750.576 750.576 0 0 1-10.326-1.352c-31.854-4.368-45.996-8.848-57.114-11.11z m434.956 147.166c-13.292-8.044-30.612-13.592-50.486-18.778 19.884 5.186 37.22 10.734 50.486 18.778z" fill="#20B6E9" /><path d="M554.13 913.436c18.05 2.07 47.842 9.048 70.936 5.434 23.094-3.624 39.514-17.85 40.334-32.596 0.82-14.742-13.95-30.006-30.254-41.13-16.296-11.128-34.112-18.11-52.52-13.968-18.412 4.136-37.402 19.402-47.37 35.564-9.964 16.168-10.902 33.242-8.214 40.366 2.696 7.108 9.042 4.264 27.088 6.33zM718.046 704.622c18.056 2.07 47.838 9.058 70.932 5.438 23.098-3.628 39.514-17.854 40.334-32.6 0.82-14.742-13.95-30.006-30.244-41.13-16.3-11.128-34.122-18.11-52.528-13.968-18.404 4.136-37.402 19.402-47.372 35.574-9.964 16.166-10.902 33.242-8.204 40.356 2.692 7.11 9.028 4.264 27.082 6.33z" fill="#484A49" /><path d="M551.082 861.444c3.868-7.632 14.66-18.114 28.61-21.22 13.95-3.102 31.07 1.164 42.092 7.182 11.014 6.01 15.938 13.776 15.708 19.53-0.238 5.758-5.63 9.506-15.538 10.088-9.9 0.582-24.326-2.008-36.522-2.268-12.196-0.252-22.156 1.814-28.666 0.458-6.504-1.354-9.554-6.148-5.684-13.77zM714.994 652.63c3.872-7.632 14.656-18.11 28.614-21.212 13.95-3.106 31.066 1.164 42.088 7.174 11.022 6.01 15.944 13.78 15.71 19.53-0.234 5.758-5.626 9.51-15.53 10.098-9.91 0.572-24.332-2.012-36.53-2.268-12.188-0.262-22.156 1.81-28.664 0.45-6.508-1.356-9.55-6.14-5.688-13.772z" fill="#65696A" /><path d="M621.726 846.564c-4.096-6.084-10.506-16.29-16.386-22.154-5.882-5.864-11.242-7.386-12.984-8.998-1.744-1.608 0.124-3.314 4.302-3.134 4.178 0.184 10.666 2.24 15.696 7.206 5.036 4.97 8.6 12.846 8.81 11.728 0.196-1.118-2.96-11.238-6.332-18.17-3.366-6.94-6.94-10.696-6.568-11.862 0.366-1.172 4.658 0.266 8.15 5.864 3.486 5.59 6.17 15.352 8.036 19.286 1.864 3.942 2.918 2.058 3.894-2.644 0.97-4.692 1.86-12.218 4.87-17.098 3-4.878 8.108-7.114 12.126-7.252 4.026-0.128 6.94 1.832 7.87 3.138 0.936 1.296-0.118 1.924-3.404 3.22-3.294 1.296-8.804 3.268-12.552 8.058-3.756 4.788-5.744 12.396-6.166 15.856-0.43 3.454 0.706 2.758 1.86 1.644 1.16-1.122 2.338-2.666 5.888-5.498 3.546-2.83 9.474-6.95 15.228-8.736 5.768-1.792 11.362-1.254 14.728 1.078 3.372 2.326 4.498 6.44 4.384 7.874-0.122 1.43-1.498 0.18-3.774-1.478-2.268-1.654-5.432-3.716-11.072-2.374-5.644 1.342-13.752 6.088-17.934 11.422-4.178 5.324-4.418 11.232-5.598 15.168-1.182 3.94-3.284 5.904-5.226 5.904-1.964 0.004-3.752-1.96-7.846-8.048z" fill="#99BE29" /><path d="M551.88 430.972c45.886 50.778 116.386 172.878 123.996 239.136 13.376 116.5-4.306 106.216 62.892 192.046 23.368 29.86 40.424 54.878 52.442 79.05a503.064 503.064 0 0 1-7.98 5.09c-11.704-21.89-28.546-45.446-53.17-75.376-72.71-88.386-54.44-77.974-65.976-200.81-6.872-73.114-77.446-187.638-118.632-245.816 1.846 1.424 4.014 3.682 6.428 6.68z m432.812 278.044l-0.642 1.576a766.674 766.674 0 0 0-6.184-7.21c2.322 1.832 4.6 3.71 6.826 5.634z m-14.958 32.56a499.064 499.064 0 0 1-7.518 14.454 301.76 301.76 0 0 0-9.932-20.506c-38.042-71.374-311.176-138.022-303.882-265.804 21.912 140.008 270.43 169.922 315.382 259.372 2.12 4.218 4.1 8.378 5.95 12.484z m-82.792 119.032a537.774 537.774 0 0 1-6.56 6.942c-22.036-19.704-46.884-29.61-79.942-75.922a118.928 118.928 0 0 1-4.952-7.118c38.986 40.406 67.852 56.144 91.454 76.098zM675.34 997.382c-3.16 1.064-6.35 2.094-9.538 3.096 0.892-32.206 5.076-63.762 6.138-69.932 1.81 15.646 2.304 41.16 3.4 66.836z m-221.448 23.314l-2.708-0.306-6.314-28.776c-9.702-92.352 55.764-147.136 112.346-200.614-70.226 100.502-105.684 103.864-103.324 229.696z m-186.612-58.864a502.722 502.722 0 0 1-11.696-6.592c21.542-27.99 56.574-43.22 92.78-40.92-31.426 8.896-61.508 23.052-81.084 47.512z m-107.068-77.848a512.368 512.368 0 0 1-10.578-10.272c11.218-1.932 23.942-3.756 38.89-5.584 80.282-9.786 64.794-0.55 135.216-27.354 73.544-28.002 298.89-75.968 250.676-193.22-45.588-110.89-102.464-183.83-213.55-221.232 110.324 20.394 178.594 114.384 222.346 216.052 56.184 130.516-176.24 183.528-255.4 212.354-75.106 27.34-96.22 19.07-167.6 29.256z m202.856-507.974c0.238 0.054 50.128 19.584 50.376 19.644 73.996 42.944 49.816 23.45 125.022 87.138 2.282 4.072 3.688 7.376 4.046 9.644-27.428-35.224-144.168-88.586-179.444-116.426z" fill="#7BD4F2" /><path d="M622.842 585.02l-31.588-129.14c-5.772-23.598-27.656-37.594-48.634-31.102l-39.334 12.176c-20.978 6.498-33.42 31.12-27.648 54.724l32.004 130.832c26.436 108.074 143.156 76.812 115.2-37.49z" fill="#FFED58" /><path d="M598.928 581.204l-5.13-20.964c-0.422-1.722-2.012-2.74-3.542-2.264l-67.334 20.844c-1.526 0.472-2.432 2.264-2.012 3.986l5.378 21.994c0.42 1.718 2.016 2.736 3.542 2.264l67.334-20.844c1.52-0.472 2.422-2.244 2.016-3.958-0.082-0.352-0.164-0.706-0.252-1.058z m-11.246-45.982l-5.382-21.994c-0.422-1.722-2.012-2.74-3.542-2.268l-67.334 20.848c-1.526 0.472-2.434 2.264-2.012 3.982l5.378 21.998c0.42 1.718 2.01 2.736 3.542 2.264l67.334-20.85c1.53-0.47 2.432-2.262 2.016-3.98z m-11.504-47.012l-1.332-5.47c-4.402-17.996-18.826-29.366-32.05-25.274l-24.798 7.678c-13.222 4.096-20.442 22.168-16.044 40.164l1.338 5.464c0.422 1.722 2.012 2.74 3.542 2.268l67.334-20.85c1.53-0.47 2.432-2.264 2.01-3.98z m-40.828 141.56c23.478 45.4 68.27 33.406 67.382-20.89-0.014-1.036-0.416-1.916-1.154-2.534-0.738-0.618-1.604-0.808-2.488-0.532l-62.016 19.2c-0.888 0.274-1.552 0.94-1.9 1.9-0.35 0.964-0.29 1.958 0.176 2.856z" fill="#E6AC05" /><path d="M588.37 579.798l-4.828-19.74-53.898 16.686 5.104 20.868c0.622 2.546 1.3 4.98 2.012 7.31l53.44-16.546a147.726 147.726 0 0 0-1.83-8.578z m-9.42-38.516l-6.908-28.242-53.898 16.688 6.908 28.244 53.898-16.69z m-11.5-47.012l-0.036-0.15c-3.83-15.66-14.968-25.99-24.748-22.962l-18.334 5.676c-9.782 3.028-14.646 18.316-10.816 33.974l0.036 0.146 53.898-16.684z m-23.41 128.586c18.546 34.628 48.258 26.782 48.118-14.894l-48.118 14.894z" fill="#FFD500" /><path d="M519.962 537.174l53.898-16.69-1.818-7.444-53.898 16.688 1.818 7.446z m14.682 60.014l0.102 0.422c0.622 2.546 1.3 4.98 2.012 7.31l53.44-16.546a143.76 143.76 0 0 0-1.658-7.876l-53.896 16.69z m12.76 31.312l44.494-13.776c0.174-2.144 0.27-4.398 0.262-6.762l-48.118 14.894a68.868 68.868 0 0 0 3.362 5.644z m37.772-61.746l-1.636-6.698-53.898 16.686 1.64 6.698 53.894-16.686z m-8.016-32.782l-53.898 16.684 1.792 7.316 53.898-16.69-1.792-7.31z m-11.774-46.126l-52.982 16.402a45.76 45.76 0 0 0 1.114 6.56l0.036 0.146 53.898-16.684-0.036-0.15a45.246 45.246 0 0 0-2.03-6.274z" fill="#BA8100" /><path d="M526.64 445.948c4.022-1.246 6.924-3.734 6.474-5.562-0.444-1.822-4.068-2.294-8.09-1.048s-6.922 3.732-6.478 5.56c0.45 1.824 4.074 2.294 8.094 1.05z m57.584 235.43c4.022-1.246 6.922-3.738 6.478-5.562-0.444-1.822-4.068-2.294-8.096-1.048-4.022 1.246-6.922 3.734-6.472 5.562 0.442 1.822 4.066 2.294 8.09 1.048z m-66.572-42.744c1.106 4.526 3.318 7.788 4.94 7.284 1.62-0.5 2.044-4.576 0.934-9.104-1.108-4.526-3.322-7.788-4.942-7.288-1.622 0.504-2.04 4.582-0.932 9.108z m97.966-31.468c1.108 4.526 3.318 7.788 4.944 7.284 1.622-0.498 2.038-4.576 0.93-9.102-1.104-4.526-3.318-7.788-4.944-7.29-1.622 0.504-2.038 4.582-0.93 9.108z m-128.214-96.184c1.108 4.526 3.322 7.788 4.942 7.288 1.622-0.504 2.04-4.58 0.936-9.108-1.11-4.526-3.322-7.788-4.944-7.284-1.622 0.506-2.04 4.578-0.934 9.104z m98.226-30.41c1.11 4.526 3.322 7.788 4.944 7.288 1.62-0.504 2.038-4.582 0.934-9.108-1.108-4.526-3.322-7.788-4.942-7.284-1.624 0.506-2.04 4.578-0.936 9.104z" fill="#747474" /><path d="M562.58 634.658l0.896-4.42-107.382-27.488-0.898 4.416zM540.568 585.658l0.898-4.422-107.384-27.488-0.894 4.422zM530.664 539.758l0.892-4.422-107.378-27.492-0.898 4.422z" fill="#785448" /><path d="M469.178 610.748c-18.962-1.05-11.98 14.234-22.81 11.462l-51.704-13.236c-3.706-0.948-6.126-4.764-5.374-8.48l4.816-23.818c0.75-3.716 4.398-5.978 8.104-5.03l51.708 13.24c9.676 2.474 0.394 17.404 16.154 21.44 0.216 0.056-0.774 3.91-0.894 4.422zM447.166 561.748c-18.962-1.048-11.976 14.238-22.806 11.466l-51.708-13.24c-3.706-0.948-6.126-4.76-5.374-8.476l4.82-23.822c0.752-3.71 4.398-5.974 8.104-5.026l51.704 13.236c9.68 2.478 0.398 17.404 16.158 21.44 0.216 0.056-0.778 3.908-0.898 4.422zM437.262 515.848c-18.962-1.048-11.98 14.234-22.81 11.462l-51.704-13.234c-3.706-0.948-6.126-4.766-5.374-8.48l4.814-23.818c0.752-3.716 4.398-5.978 8.104-5.03l51.708 13.24c9.676 2.474 0.398 17.404 16.154 21.44 0.216 0.054-0.774 3.906-0.892 4.42z" fill="#FFBF06" /><path d="M443.688 601.86a2.8 2.8 0 0 0-2.028-3.23l-42.354-10.844a2.48 2.48 0 0 0-3.074 1.924 2.808 2.808 0 0 0 2.03 3.23l42.358 10.844a2.476 2.476 0 0 0 3.068-1.924zM421.68 552.86a2.808 2.808 0 0 0-2.03-3.23l-42.358-10.844a2.48 2.48 0 0 0-3.07 1.924 2.8 2.8 0 0 0 2.03 3.23l42.352 10.844a2.48 2.48 0 0 0 3.076-1.924zM411.772 506.96a2.8 2.8 0 0 0-2.03-3.23l-42.352-10.844a2.474 2.474 0 0 0-3.07 1.924 2.8 2.8 0 0 0 2.03 3.23l42.354 10.844a2.48 2.48 0 0 0 3.068-1.924zM567.052 638.446l1.912-9.452c0.39-1.924-0.852-3.898-2.758-4.388h-0.006a3.37 3.37 0 0 0-4.174 2.616l-1.91 9.446a3.812 3.812 0 0 0 2.758 4.39l0.004 0.004a3.372 3.372 0 0 0 4.174-2.616zM545.04 589.446l1.91-9.446c0.394-1.928-0.848-3.902-2.758-4.394a3.376 3.376 0 0 0-4.178 2.616l-1.91 9.448c-0.39 1.928 0.852 3.902 2.758 4.394h0.004a3.378 3.378 0 0 0 4.174-2.618zM535.134 543.546l1.91-9.45c0.39-1.924-0.852-3.898-2.758-4.39h-0.004a3.37 3.37 0 0 0-4.174 2.616l-1.912 9.448a3.812 3.812 0 0 0 2.758 4.388h0.006a3.368 3.368 0 0 0 4.174-2.612z" fill="#FFFF00" /><path d="M586.018 627.4l-2.776-3.284 79.764-85.43 2.778 3.284zM582.652 572.628l-2.78-3.28 79.762-85.432 2.782 3.286zM570.286 527.49l-2.774-3.286 79.762-85.426 2.776 3.28z" fill="#785448" /><path d="M655.398 553.094c15.818-11.82 16.772 5.336 24.81-3.28l38.41-41.136c2.752-2.946 3.096-7.618 0.76-10.376l-14.972-17.694c-2.332-2.756-6.496-2.6-9.25 0.344l-38.404 41.136c-7.188 7.702 7.572 15.186-4.132 27.72-0.16 0.174 2.446 2.91 2.778 3.286zM652.03 498.32c15.814-11.816 16.766 5.342 24.812-3.276l38.404-41.136c2.754-2.95 3.096-7.618 0.766-10.376l-14.972-17.698c-2.336-2.758-6.502-2.6-9.25 0.348l-38.408 41.136c-7.188 7.696 7.574 15.182-4.132 27.722-0.16 0.17 2.446 2.908 2.78 3.28zM639.666 453.18c15.82-11.816 16.772 5.338 24.812-3.274l38.41-41.14c2.752-2.946 3.096-7.618 0.76-10.376l-14.972-17.692c-2.332-2.758-6.496-2.602-9.248 0.342l-38.406 41.14c-7.188 7.696 7.572 15.182-4.132 27.716-0.162 0.174 2.446 2.914 2.776 3.284z" fill="#FFBF06" /><path d="M673.26 530.788l-0.004-0.006c-0.888-1.054-0.842-2.74 0.106-3.756l31.808-34.066c0.944-1.012 2.446-0.986 3.34 0.068v0.004c0.892 1.054 0.846 2.744-0.102 3.758L676.6 530.856c-0.95 1.012-2.452 0.986-3.34-0.068zM669.888 476.014c-0.892-1.054-0.848-2.744 0.1-3.758l31.808-34.066c0.948-1.016 2.45-0.986 3.34 0.068h0.006c0.888 1.054 0.842 2.744-0.106 3.762l-31.808 34.062c-0.944 1.018-2.448 0.986-3.34-0.068zM657.528 430.874l-0.006-0.004c-0.888-1.05-0.842-2.74 0.106-3.758l31.802-34.066c0.948-1.012 2.452-0.98 3.344 0.068v0.006c0.892 1.054 0.848 2.744-0.1 3.756l-31.808 34.066c-0.946 1.018-2.45 0.986-3.338-0.068zM583.682 632.968l-5.502-6.502c-1.334-1.57-1.26-4.1 0.156-5.616l0.006-0.006c1.416-1.516 3.66-1.47 4.994 0.1l5.502 6.506c1.334 1.57 1.26 4.1-0.156 5.616l-0.004 0.006c-1.418 1.516-3.662 1.472-4.996-0.104zM580.31 578.198l-5.502-6.502c-1.33-1.576-1.26-4.1 0.156-5.622h0.004c1.416-1.52 3.666-1.47 4.994 0.102l5.502 6.502c1.334 1.574 1.264 4.1-0.156 5.62-1.42 1.522-3.664 1.476-4.998-0.1zM567.95 533.06l-5.502-6.506c-1.332-1.57-1.26-4.1 0.156-5.616l0.004-0.006c1.416-1.516 3.66-1.47 4.994 0.106l5.502 6.502c1.328 1.57 1.26 4.1-0.156 5.618l-0.006 0.004c-1.414 1.516-3.658 1.47-4.992-0.102zM406.582 40.086c29.292 0 53.032 23.744 53.032 53.038 0 29.288-23.74 53.032-53.032 53.032-29.288 0-53.034-23.744-53.034-53.032 0-29.294 23.744-53.038 53.034-53.038z" fill="#FFFF00" /><path d="M504.706 42.28c5.296 0 10.29 1.256 14.71 3.486a26.466 26.466 0 0 1 18.572-7.578c12.52 0 23.016 8.664 25.824 20.328a21 21 0 0 1 13.57 12.668c0.75-0.084 1.516-0.118 2.292-0.118 11.562 0 20.948 9.378 20.948 20.954 0 11.572-9.386 20.95-20.948 20.95-3.612 0-7-0.912-9.96-2.512a20.956 20.956 0 0 1-20.116 15.064c-5.82 0-11.088-2.372-14.886-6.212a20.87 20.87 0 0 1-14.888 6.212 20.902 20.902 0 0 1-14.312-5.65 20.89 20.89 0 0 1-15.462 6.818 20.836 20.836 0 0 1-14.704-6.028c-1.728 0.384-3.532 0.582-5.374 0.582-13.79 0-24.958-11.174-24.958-24.958 0-13.79 11.168-24.964 24.958-24.964 0.746 0 1.498 0.036 2.232 0.106 1.768-16.394 15.648-29.148 32.502-29.148zM282.992 85.216c5.296 0 10.29 1.256 14.712 3.486a26.466 26.466 0 0 1 18.572-7.578c12.52 0 23.016 8.662 25.824 20.328a20.99 20.99 0 0 1 13.57 12.668c0.75-0.084 1.516-0.12 2.29-0.12 11.564 0 20.95 9.378 20.95 20.956 0 11.572-9.386 20.95-20.95 20.95-3.61 0-7-0.912-9.96-2.512a20.956 20.956 0 0 1-20.116 15.064 20.868 20.868 0 0 1-14.884-6.212 20.87 20.87 0 0 1-14.888 6.212 20.902 20.902 0 0 1-14.312-5.65 20.888 20.888 0 0 1-15.462 6.816 20.844 20.844 0 0 1-14.706-6.028c-1.726 0.386-3.532 0.582-5.374 0.582-13.79 0-24.958-11.174-24.958-24.96 0-13.79 11.168-24.962 24.958-24.962 0.746 0 1.498 0.036 2.232 0.106 1.766-16.392 15.648-29.146 32.502-29.146z" fill="#FFFFFF" /></svg>