<?xml version="1.0" standalone="no"?><!DOCTYPE svg PUBLIC "-//W3C//DTD SVG 1.1//EN" "http://www.w3.org/Graphics/SVG/1.1/DTD/svg11.dtd"><svg class="icon" width="200px" height="200.00px" viewBox="0 0 1024 1024" version="1.1" xmlns="http://www.w3.org/2000/svg"><path d="M512.01002 0C794.76802 0 1024.00002 229.232 1024.00002 512.01 1024.00002 794.768 794.76802 1024 512.01002 1024 229.23202 1024 0.00002 794.768 0.00002 512.01 0.00002 229.232 229.23202 0 512.01002 0z" fill="#B1E9F1" /><path d="M424.11802 70.192c4.142 0 8.068 0.996 11.526 2.734a20.74 20.74 0 0 1 14.554-5.938c9.806 0 18.032 6.798 20.238 15.922a16.472 16.472 0 0 1 10.628 9.944c0.606-0.078 1.192-0.098 1.798-0.098a16.43 16.43 0 0 1 16.43 16.43c0 9.064-7.364 16.41-16.43 16.41a16.286 16.286 0 0 1-7.794-1.974 16.426 16.426 0 0 1-15.766 11.82 16.25 16.25 0 0 1-11.662-4.884 16.33 16.33 0 0 1-11.682 4.884 16.448 16.448 0 0 1-11.214-4.434 16.32 16.32 0 0 1-12.112 5.334 16.372 16.372 0 0 1-11.526-4.708c-1.368 0.294-2.774 0.45-4.22 0.45-10.804 0-19.556-8.752-19.556-19.556s8.752-19.574 19.556-19.574c0.586 0 1.172 0.04 1.758 0.078 1.388-12.838 12.268-22.84 25.474-22.84z" fill="#FFFFFF" /><path d="M539.71202 60.658c38.232 0 69.214 30.984 69.214 69.214 0 38.212-30.984 69.214-69.214 69.214s-69.214-31.004-69.214-69.214c-0.002-38.23 30.982-69.214 69.214-69.214z" fill="#FFFF00" /><path d="M286.88002 635.69a184.016 184.016 0 0 1-36.59 3.634c-75.056 0-135.91-44.248-135.91-98.83 0-44.854 41.122-82.734 97.444-94.786 3.576-8.908 9.338-17.114 16.86-24.302-26.978-13.48-44.658-36.062-44.658-61.674 0-41.298 46.046-74.782 102.856-74.782 28.952 0 55.09 8.674 73.786 22.68 16.254-7.814 35.712-12.366 56.654-12.366 17.602 0 34.168 3.204 48.664 8.888 12.6-30.964 51.984-53.548 98.636-53.548 54.368 0 98.89 30.67 102.62 69.508a143.12 143.12 0 0 1 17.29-1.054c56.81 0 102.856 33.484 102.856 74.802a55.34 55.34 0 0 1-1.974 14.612 147.698 147.698 0 0 1 9.788-0.332c56.81 0 102.856 33.484 102.856 74.802 0 11.136-3.34 21.704-9.338 31.178 29.322 13.186 48.878 36.766 48.878 63.686 0 41.298-46.066 74.782-102.874 74.782-23.872 0-45.85-5.9-63.296-15.824H286.88002v-1.074z" fill="#FFFFFF" /><path d="M0.07802 506.442h1023.864c0 1.856 0.058 3.712 0.058 5.568C1024.00002 794.768 794.76802 1024 512.01002 1024 229.23202 1024 0.00002 794.768 0.00002 512.01c0-1.856 0.058-3.712 0.078-5.568z" fill="#8FC9F7" /><path d="M762.41802 658.468c102.602 0 185.764 4.454 185.764 9.944 0 5.49-83.164 9.944-185.764 9.944s-185.764-4.454-185.764-9.944c0-5.49 83.162-9.944 185.764-9.944z m186.154 121.122l-2.716 4.336c-18.754 4.806-88.574 8.38-171.874 8.38-97.658 0-176.836-4.904-176.836-10.96 0-6.056 79.178-10.96 176.836-10.96 88.068 0.002 161.072 3.988 174.59 9.204zM26.23602 674.176c-1.094-3.282-2.188-6.564-3.204-9.866 18.558-2.012 48.526-3.322 82.324-3.322 56.34 0 102.016 3.614 102.016 8.088 0 4.454-45.674 8.068-102.016 8.068-31.922 0-60.404-1.152-79.12-2.968z m288.914 87.128c125.184 0 226.672 2.97 226.672 6.642 0 3.654-101.488 6.622-226.672 6.622-125.204 0-226.692-2.97-226.692-6.622 0-3.672 101.488-6.642 226.692-6.642z m-52.22 39.092c92.052 0 166.678 2.716 166.678 6.056s-74.626 6.056-166.678 6.056c-92.032 0-166.658-2.716-166.658-6.056 0-3.342 74.626-6.056 166.658-6.056z m243.18 38.484c102.112 0 184.904 3.34 184.904 7.462s-82.792 7.462-184.904 7.462c-102.132 0-184.924-3.34-184.924-7.462s82.792-7.462 184.924-7.462z" fill="#B9DDF9" /><path d="M676.40202 126.61c4.162 0 8.068 0.976 11.526 2.716a20.816 20.816 0 0 1 14.554-5.938c9.826 0 18.05 6.798 20.258 15.942a16.49 16.49 0 0 1 10.628 9.924c0.586-0.058 1.192-0.098 1.798-0.098 9.064 0 16.41 7.364 16.41 16.43s-7.346 16.43-16.41 16.43a16.424 16.424 0 0 1-7.814-1.974 16.432 16.432 0 0 1-15.766 11.8 16.348 16.348 0 0 1-11.662-4.864 16.352 16.352 0 0 1-11.662 4.864 16.398 16.398 0 0 1-11.232-4.434 16.336 16.336 0 0 1-12.112 5.352 16.34 16.34 0 0 1-11.526-4.728 18.606 18.606 0 0 1-4.2 0.468c-10.804 0-19.574-8.772-19.574-19.574 0-10.804 8.772-19.556 19.574-19.556 0.586 0 1.172 0.02 1.738 0.078 1.384-12.854 12.266-22.838 25.472-22.838z" fill="#FFFFFF" /><path d="M482.08202 495.952l-13.636 36.024-33.758 31.492s27.916 5.842 21.098 14.926c-6.818 9.084-33.446 24.028-33.446 24.028l-27.584-0.976-5.176 20.766s-7.15 1.308-34.422 9.748l-7.462 11.35-51.614 0.976 2.286 16.546-63.94-1.622s-12.034 18.812-21.762 18.812-57.454-3.242-57.454-3.242l-17.192 12.992s-64.604-1.622-69.8 1.622c-5.176 3.242-10.374 16.546-10.374 16.546l-18.07 4.24C14.43602 649.854 0.31202 583.666 0.02002 514.198c3.926-4.63 6.428-6.856 6.858-5.606 2.578 7.794 342.772-6.506 342.772-6.506l132.432-6.134z" fill="#5C4036" /><path d="M46.41602 598.806s24.536-36.238 47.002-32.566L14.28002 547.838 1.54202 551.98a514.774 514.774 0 0 0 6.74 52.18c15.59-1.856 38.134-5.354 38.134-5.354zM383.99202 512.128s-22.72 35.38-22.72 45.44c0 10.06 0.118-29.89 0.118-29.89l-49.718 1.524s37.586-32.664 50.89-25.846c13.304 6.818 21.43 8.772 21.43 8.772z" fill="#3E2622" /><path d="M0.72202 484.856c6.858 2.892 11.604 4.572 11.604 3.672 0-1.622-6.036-9.944-10.744-17.016 0.196-2.5 0.45-5.002 0.684-7.502 13.518 7.678 44.288 22.74 36.044 18.012-9.104-5.176-18.188-31.16-8.44-25.298 9.728 5.842 31.804 19.458 31.804 19.458s39.598-27.916 37.646-19.458c-1.934 8.44-13.616 18.812-13.616 18.812s53.216-28.562 59.056-20.766c5.86 7.794-10.628 6.662-12.17 9.24-1.544 2.598 8.362 9.416 21.666 3.242 13.324-6.154 42.196-13.616 36.688-6.818-5.528 6.818-3.242 12.66 6.174 9.748 9.396-2.93 31.16 8.44 24.986-0.644-6.174-9.104-22.72-24.028-13.636-18.188s18.832 10.392 21.762 15.59c2.91 5.196 32.116-28.562 28.228-18.5-3.908 10.06-20.122 24.654-16.878 24.654s22.72-6.154 33.758-8.752 13.304 2.598 7.15 6.174c-6.174 3.576 3.556 0 39.58-2.93 36.044-2.93 37.978 4.552 34.734 10.706-3.242 6.174 26.94-12.326 42.842-12.326s16.546 3.888 16.546 3.888-16.546-0.644-19.79 5.196 23.364 4.532 23.364 4.532c15.18 0.88 23.208 3.38 34.188 1.23 16.546-3.224 40.576 8.44 42.862 18.5 0 0-2.246-3.594-12.308-3.594 4.22 4.864 8.732 14.984 9.064 25.044 0 0-11.076-11.838-14.32-17.368-3.242-5.51 6.408 15.512 6.408 15.512-25.026-22.916-29.284-10.608-47.394-9.124-15.902 1.29-12.326-1.308-21.098-1.308s7.952 2.754-6.974 6.33c-14.944 3.576-24.36-0.332-47.238 4.044-22.876 4.396-24.342 7.794-24.342 7.794s37.978-5.842 20.61 2.11c-17.368 7.97-45.284 13.968-64.584 15.59-19.32 1.622-22.076 5.51-24.028 5.352-1.934-0.176-0.488-6.174-8.284-7.15-7.776-0.976-7.286 12.346-28.072 13.324-20.766 0.958-20.278 0.312-24.83-6.506-4.552-6.818-43.174 5.02-59.076 10.218s-19.81 0.312-36.356-4.864c-16.546-5.196-48.37-12.328-41.552-3.576 6.818 8.752 33.446 17.856 14.28 14.612-19.144-3.242-87.304-0.976-78.534 8.108 8.752 9.084 81.132 24.01 63.94 27.916-7.268 1.642-32.956 8.38-61.166 15.98A513.812 513.812 0 0 1 0.00002 512.01c0-9.124 0.234-18.168 0.722-27.154z" fill="#54892E" /><path d="M452.29002 596.638c-2.384-0.118-8.458-1.562-14.046-3.966-5.158-2.208-11.174-0.352-11.174-0.352s-3.164 9.26-13.226 9.788c-10.06 0.546-16.312-10.022-19.906-2.832-3.614 7.208-2.52 19.692-14.768 21.138-12.248 1.446-22.7 3.594-29.91 12.972-7.19 9.358-7.19 1.914-21.118 5.764-13.928 3.828-29.948-2.052-33.034 0.84-6.114 5.684-5.822 17.094-16.684 17.406-8.166 0.234-22.408 1.856-31.726 2.13-9.338 0.274-17.25-3.81-19.652 1.23-2.402 5.04-5.216 10.55-14.848 11.994-9.65 1.446-21.724 5.098-32.39 3.634-10.646-1.466-20.708-3.986-25.63-0.8-19.536 12.6-5.118 9.416-28.718 9.416-11.994 0-37.176-6.466-50.87-1.738-12.484 4.318-35.36 20.864-36.298 20.942l-0.898 0.136c1.72 4.22 3.478 8.42 5.314 12.58a28.352 28.352 0 0 1 6.154-0.704c9.612 0 5.294-12.972 20.18-12.972 26.646 0 33.172-17.368 61.46-9.124 23.052 6.74 18.734-4.318 29.304-4.318 10.568 0 29.304-0.468 46.592-1.914s24.966-3.36 31.686-10.1c6.72-6.72 14.418-3.828 36.024-6.72 21.606-2.872 37.47-9.612 41.786-13.928s3.614 0.488 22.584-3.828c18.97-4.336 11.038-9.142 26.9-13.694 15.844-4.552 13.91-0.958 27.604-5.528 13.694-4.552 13.928-17.758 15.374-21.606 1.446-3.848 22.33-8.654 32.664-7.932 10.312 0.72 11.27-7.914 11.27-7.914z" fill="#B1E3FB" /><path d="M672.84602 566.358c11.936 0 21.606 2.168 21.606 4.826 0 2.676-9.67 4.844-21.606 4.844s-21.606-2.168-21.606-4.844c0-2.658 9.67-4.826 21.606-4.826z m190.318-17.27c14.574 5.88 32.176 15.688 33.582 29.128 2.07 20.004-79.92 34.852-114.89 38.544l-0.39 0.136c48.546-3.4 219.444-19.126 88.496-65.698l-3.888-1.348-3.204-1.094 0.294 0.332z m-380.634 0c-14.554 5.88-32.156 15.688-33.562 29.128-2.09 20.004 79.92 34.852 114.87 38.544l0.41 0.136c-48.546-3.4-219.464-19.126-88.496-65.698l3.868-1.348 3.204-1.094-0.294 0.332z m190.316-5.684c109.106 0 197.564 12.308 197.564 27.486s-88.458 27.468-197.564 27.468-197.544-12.288-197.544-27.468 88.438-27.486 197.544-27.486z m0 10.862c91.934 0 166.444 7.444 166.444 16.624 0 9.182-74.508 16.624-166.444 16.624-91.916 0-166.424-7.444-166.424-16.624 0-9.182 74.51-16.624 166.424-16.624z m0 5.138c70.66 0 127.92 5.138 127.92 11.486 0 6.33-57.258 11.468-127.92 11.468-70.64 0-127.92-5.138-127.92-11.468 0.002-6.348 57.28-11.486 127.92-11.486z m0 3.046c50.05 0 90.606 3.77 90.606 8.44s-40.556 8.44-90.606 8.44c-50.03 0-90.606-3.77-90.606-8.44 0-4.668 40.576-8.44 90.606-8.44z" fill="#DFF3FD" /><path d="M660.95002 446.78s2.774-3.322 6.838-2.5 1.172 10.726 12.288 21.84c11.116 11.096 51.418 16.722 62.826 46.534 6.896 18.012 10.568 40.732 3.594 60.834h-144.838a87.574 87.574 0 0 1-2.208-11.076c-6.192-46.592 8.518-71.344 25.63-82.148 17.114-10.804 18.656-18.598 23.834-25.338 5.178-6.74 7.132-9.728 12.036-8.146z" fill="#FFEF76" /><path d="M734.22802 513.71s-0.528 0.976-1.524 2.794a74.526 74.526 0 0 1-4.884 7.502 66.75 66.75 0 0 1-9.318 10.218 71.6 71.6 0 0 1-14.75 10.12c-5.802 3.028-12.502 5.548-19.848 7.268-7.306 1.778-15.258 2.696-23.482 2.872a136.944 136.944 0 0 1-25.298-1.992c-8.538-1.466-16.996-4.142-25.298-7.248 0 0 1.172 0.488 3.302 1.406 2.13 0.958 5.294 2.168 9.3 3.634 8.048 2.832 19.926 5.666 33.934 6.154 6.994 0.234 14.514-0.136 22.212-1.446 7.658-1.388 15.512-3.634 22.876-7.248 7.346-3.576 14.242-8.38 19.828-14.3a65.936 65.936 0 0 0 7.482-9.416 73.33 73.33 0 0 0 5.468-10.318z m-0.196 52.59l-1.974 2.148c-0.626 0.704-1.406 1.582-2.324 2.598a141.6 141.6 0 0 1-2.422 2.442h0.938a128.828 128.828 0 0 0 5.782-7.188z m1.896-26.316s-0.586 0.918-1.66 2.618c-0.528 0.86-1.29 1.836-2.11 3.048-0.41 0.586-0.918 1.192-1.426 1.856a35.52 35.52 0 0 1-1.68 2.052c-4.786 5.724-12.854 13.07-24.42 18.578a85.46 85.46 0 0 1-14.496 5.352h7.092a80.49 80.49 0 0 0 15.57-7.774 70.184 70.184 0 0 0 9.358-7.364c5.82-5.354 10.43-11.742 13.772-18.366z m-98.754 33.504c-7.912-2.09-15.648-5.274-23.502-8.146 0 0 4.454 2.032 12.074 5.294 1.934 0.762 4.064 1.622 6.368 2.5l1.054 0.352h4.006z" fill="#F9BF2C" /><path d="M678.02402 474.364c-5.842-1.7-13.088 1.328-14.788 7.17s2.814 12.288 8.654 13.968c5.842 1.7 12.796-1.406 14.476-7.268 1.7-5.84-2.502-12.17-8.342-13.87z" fill="#FF9F00" /><path d="M677.75002 475.342c-5.294-1.524-10.842 1.524-12.366 6.818a9.974 9.974 0 0 0 6.798 12.366 9.99 9.99 0 0 0 5.568-19.184z" fill="#FEFEFE" /><path d="M679.97802 476.708a4.664 4.664 0 0 0-5.764 3.184 4.656 4.656 0 0 0 3.164 5.744 4.654 4.654 0 0 0 5.764-3.164 4.654 4.654 0 0 0-3.164-5.764z"  /><path d="M662.47402 455.806s-2.442-5.176-2.032-8.458c0-0.002-5.92 6.172 2.032 8.458z" fill="#ED6C00" /><path d="M654.97202 517.246s-0.88 24.79-18.988 31.082c-18.11 6.27-26.06 9.514-26.002 22.524 0 0.82 0.196 1.7 0.546 2.638h84.824c-0.468-6.838-1.974-14.554-4.65-23.11-10.55-33.778-15.18-41.416-21.078-45.128-5.92-3.732-13.05 2.362-14.652 11.994zM743.46802 573.488c6.232-19.672 2.56-41.65-4.142-59.154-11.408-29.83-51.71-35.438-62.826-46.554s-8.224-21.02-12.288-21.84a6.614 6.614 0 0 0-2.306-0.04c1.134-0.938 3.224-2.168 5.88-1.622 4.064 0.82 1.172 10.726 12.288 21.84 11.116 11.096 51.398 16.704 62.826 46.534 6.896 18.012 10.568 40.732 3.594 60.834h-3.026z" fill="#FF9F00" /><path d="M102.07402 455.806a72.854 72.854 0 0 1 7.97-5.196c16.762 8.966 33.952 8.81 51.574-0.078a87.404 87.404 0 0 1 8.752 5.274c0.86 0.586 1.876-0.86 1.876-1.914v-7.052c0-1.054-0.976-1.406-1.876-1.914-21.666-12.464-44.404-12.914-68.296 0-0.918 0.488-1.876 0.86-1.876 1.914v7.052c0 1.054 1.036 2.538 1.876 1.914z" fill="#FF7042" /><path d="M166.01402 458.462v46.944c0 5.646-4.61 10.276-10.256 10.276H116.37402c-5.646 0-10.256-4.63-10.256-10.276v-47.316c0-1.718 59.72 4.494 59.896 0.372z" fill="#E54A18" /><path d="M101.25402 445.062c22.446 16.43 45.674 16.116 69.626 0 0.88-0.586 1.914 0.86 1.914 1.914v7.072c0 1.054-0.996 1.406-1.914 1.914-22.094 12.444-45.264 12.914-69.626 0-0.938-0.488-1.914-0.86-1.914-1.914v-7.072c-0.002-1.056 1.054-2.54 1.914-1.914z" fill="#BD360C" /><path d="M167.63602 456.92c14.182 22.232-11.566 40.752-31.746 40.752-21.332 0-46.026-18.422-30.75-41.67-0.02-0.078-0.02-0.136-0.02-0.214 0-1.152 0.938-2.09 2.09-2.09s2.09 0.938 2.09 2.09c0 1.094-0.84 1.992-1.934 2.07-12.952 21.138 8.986 37.508 28.522 37.508 18.402 0 41.552-16.566 29.322-36.864a2.08 2.08 0 0 1-1.7-2.052 2.08 2.08 0 1 1 4.16 0 1.78 1.78 0 0 1-0.034 0.47z" fill="#FFFFFF" /><path d="M228.11802 495.384l2.578 14.242s15.258 2.814 16.996 6.466c1.758 3.654 0.274 7.404 0.274 7.404-27.546-1.23-17.758-9.24-35.926-6.506a5.204 5.204 0 0 1-5.08-2.13c-1.192-1.66-1.368-3.692-0.45-5.49 4.258-8.42 9.65-19.242 9.142-18.872-0.838 0.59 12.466 4.886 12.466 4.886z" fill="#606060" /><path d="M314.72002 264.142l-7.814-9.006 6.154-5.744c5.822-5.49 3.634-9.514 9.456-5.548 22.152-28.718 15.998 10.158-7.796 20.298z" fill="#FFCBBB" /><path d="M251.56002 500.386l2.578 14.262s15.258 2.814 16.996 6.466 0.254 7.404 0.254 7.404c-27.546-1.23-17.738-9.24-35.926-6.506a5.2 5.2 0 0 1-5.08-2.148c-1.192-1.64-1.348-3.672-0.43-5.49 4.258-8.4 9.65-19.224 9.142-18.852-0.838 0.586 12.466 4.864 12.466 4.864z" fill="#424242" /><path d="M231.96602 265.06l-20.982 32.098 19.184 118.934c0.078 0.468 0.176 0.88 0.078 1.348l-16.038 77.01 16.782 6.994 26.96-80.624c0.136-0.45 0.098-0.86 0.078-1.348l-2.892-107.7-23.17-46.712z" fill="#BBBBBB" /><path d="M252.85002 299.442l-3.79-9.162-36.394-5.938c-21.548 33.992 15.296 60.072 29.596 110.514 3.008 10.568-5.352 88.028-6.798 105.472l19.126 7.522c19.338-120.536 29.986-104.908-1.74-208.408z" fill="#DFDFDF" /><path d="M258.84802 172.87l-3.242 6.896c-5.118-3.614-12.014-6.682-19.75-11.252l5.352-8.478 17.64 12.834z" fill="#FFB54C" /><path d="M232.02402 171.23l-10.158 50.442c-0.898 4.474-0.664 22.916 0.722 23.15l85.938 15.022 2.07-8.518-63.96-18.226c-1.348-0.372 0.722-2.13 0.86-3.536l4.024-40.028-19.496-18.306z" fill="#9BCB64" /><path d="M250.95402 294.872l-39.676-8.166c6.974-40.79-8.048-93.692 12.132-108.97 1.074-0.82 11.408-8.244 12.366-9.26 13.07 7.794 23.326 10.92 27.35 19.712 11.076 54.66-16.684 62.356-12.172 106.684z" fill="#4EC1F5" /><path d="M250.56402 179.24c-21.548-3.106-14.202 68.648-9.572 97.64 1.328 8.42 76.052-9.416 75.076-10.804l-5.86-8.458c-9.866-0.41-52.688 8.966-52.082-1.036 2.128-35.536 4.062-79.374-7.562-77.342z" fill="#ADD37F" /><path d="M274.55402 138.254l0.704 5.548-3.028 3.126 5.606 11.272-0.45 1.798-4.65 0.898 0.058 3.672-0.176 1.308-2.578 0.196 2.032 0.762-0.254 2.656-1.836 0.704-0.058 3.068-0.722 2.482s-1.192 4.24-7.072 1.328c-7.638-3.81-14.534-6.76-23.072-11.232-1.816-3.438-21.294-36.786 2.11-46.124 15.902-6.332 30.984 4.922 33.386 18.538z" fill="#FFDFB1" /><path d="M245.52402 135.85s-7.052 4.806-6.096 8.556c0.958 3.732 3.732 6.858 3.732 6.858l-1.348 10.49-4.298 1.212s-16.196-20.63-7.58-34.872c15.042-24.888 49.522 0.294 44.718 6.428-3.77 4.826-29.128 1.328-29.128 1.328z" fill="#424242" /><path d="M357.73602 211.942l5.138-3.908c0.118-0.546 0.332-1.074 0.606-1.544 0.352-0.586 0.84-1.114 1.426-1.544l4.942-3.496c0.528-0.39 1.134-0.664 1.738-0.8 0.488-0.136 0.976-0.176 1.466-0.156l8.83-6.466c0.058-0.196 0.136-0.39 0.234-0.546v-0.02c0.176-0.294 0.41-0.566 0.704-0.8 0.352-0.254 3.614-2.93 4.24-3.184l2.442-1.036-1.114 2.422a2.384 2.384 0 0 1-0.39 0.586c0.078 0.098 0.156 0.214 0.254 0.372 0.156 0.214 0.332 0.488 0.508 0.762h0.02l0.39 0.586 0.294 0.43v0.02c0.156 0.234 0.294 0.468 0.468 0.704 0.156 0.234 0.332 0.45 0.488 0.644l-32.684 16.974z m0.626 0.82l1.094-0.82 3.068-2.344 1.308-0.996a4.058 4.058 0 0 1 1.68-2.814l4.924-3.496c0.88-0.626 1.934-0.86 2.93-0.722l9.456-6.916a1.616 1.616 0 0 1 0.626-1.152s3.536-2.872 4.004-3.068c-0.196 0.43-0.782 0.704-0.528 1.27 0.098 0.234 0.312 0.43 0.45 0.644 0.294 0.468 0.626 0.938 0.938 1.406 0.098 0.136 0.196 0.274 0.274 0.43 0.294 0.43 0.586 0.88 0.918 1.29l0.118 0.156 0.468 0.528 0.156 0.136c0.098 0.118 0.254 0.332 0.41 0.372 0.196 0.078 0.546-0.078 0.762-0.098-0.234 0.02-3.36 2.656-3.79 2.97-0.332 0.254-0.742 0.332-1.192 0.274l-9.67 6.818a4.016 4.016 0 0 1-1.582 2.306l-4.942 3.516a4.08 4.08 0 0 1-3.516 0.606l-5.938 3.926-2.426-4.222z m29.518-21.45c-0.04-0.058-0.058-0.118-0.02-0.02l0.02 0.02z m2.54 3.654l0.02 0.02c0.176 0.196 0.352 0.41 0.528 0.586l0.02 0.02c0.098-0.02 0.196-0.04 0.332-0.058h0.04l0.118 2.07c-0.176 0.02-1.172 1.094-2.13 1.894v-0.02l-1.094 0.898h-0.02a2.43 2.43 0 0 1-1.504 0.488l-9.084 6.408a4.76 4.76 0 0 1-0.606 1.23 5.242 5.242 0 0 1-1.25 1.29l-4.942 3.496a4.896 4.896 0 0 1-2.11 0.88 4.702 4.702 0 0 1-1.816-0.02l-5.568 3.712-0.918 0.606-0.546-0.958-2.422-4.24-0.45-0.782 0.722-0.546 32.68-16.974z" fill="#181818" /><path d="M575.85202 54.074c0.606-0.254 1.23-0.352 1.758-0.078 0.644 0.352 1.036 0.86 0.86 1.68-0.098 0.488-0.43 1.036-1.172 1.68-0.332 0.274-1.816 1.406-1.816 1.406l-0.04 0.02-0.098 0.078-63.002 46.572a2.472 2.472 0 0 1-0.938 1.426l-9.378 6.896a2.294 2.294 0 0 1-1.036 0.43c-0.176 0.04-0.352 0.04-0.546 0.04l-7.952 5.86v0.02L455.68802 147.24a3.164 3.164 0 0 1-0.254 0.684 2.906 2.906 0 0 1-0.82 0.958l-0.02-0.02-12.054 8.81a2.92 2.92 0 0 1-1.074 0.468v0.02c-0.214 0.04-0.45 0.058-0.664 0.058l-34.832 25.67-1.212 0.918-0.39-1.484-0.84-3.224-0.176-0.684 0.586-0.41 34.402-24.81c0.078-0.156 0.156-0.312 0.254-0.45 0.176-0.234 0.39-0.45 0.626-0.626l12.074-8.792c0.274-0.214 0.586-0.352 0.898-0.45 0.196-0.058 0.372-0.078 0.566-0.098l45.576-32.878a2.248 2.248 0 0 1 0.822-1.054l9.396-6.896c0.274-0.196 0.566-0.332 0.898-0.41 0.156-0.04 0.332-0.058 0.488-0.058l63.92-47.218 0.02-0.02 0.214-0.156 0.546-0.372 0.02-0.02c0.354-0.212 0.784-0.466 1.194-0.622zM305.03002 249.372l-0.02-0.04 4.864-3.712 0.86-0.644 0.606 0.86 3.77 5.138 0.644 0.86-0.898 0.606c-0.02 0.02-4.59 3.282-5.43 3.594-1.152 0.43-1.934-0.586-2.95-1.934-0.332-0.41-0.684-0.88-1.094-1.368-1.758-2.012-1.016-2.968-0.352-3.36z" fill="#202020" /><path d="M516.03402 114.83c-1.876-2.012-3.712-3.38-4.318-3.242-2.286-1.836-5.372-3.086-5.528-3.146l-0.214 0.508c0.04 0.02 3.34 1.368 5.588 3.242 0.254 0.84 1.348 2.442 2.892 4.102 2.012 2.148 4.004 3.576 4.434 3.164 0.428-0.408-0.842-2.478-2.854-4.628zM577.06402 63.334c-1.348-1.054-2.696-1.602-3.204-1.368-1.934-1.192-2.93-1.27-2.988-1.27l-0.02 0.546s0.958 0.078 2.794 1.27c0.136 0.606 0.938 1.602 2.11 2.52 1.484 1.152 2.988 1.72 3.36 1.23 0.37-0.466-0.548-1.774-2.052-2.928z" fill="#181818" /><path d="M386.24002 191.254l1.894-1.368 15.648-11.232s0.41-0.586 1.29 0.468c0.86 1.074 3.536 3.478 2.814 4.298-0.722 0.84-15.882 13.05-17.152 13.616-1.232 0.548-4.494-5.782-4.494-5.782z m-72.85 52.102l-2.696 1.856s-1.25 0.742 0.078 2.482c1.328 1.738 3.086 4.18 3.086 4.18s0.254 0.722 1.816-0.684l46.808-34.324s-0.294-0.508-1.172-1.66c-0.84-1.152-2.638-3.576-2.754-3.672-0.078-0.058-3.224 2.208-4.766 3.322-9.748 7.03-40.4 28.5-40.4 28.5z" fill="#FFC928" /><path d="M573.43002 57.786c0.468 0.606 0.546 1.328 0.196 1.602l-5.45 4.142c-0.372 0.274-1.036 0-1.504-0.606-0.45-0.606-0.546-1.328-0.176-1.602l5.43-4.142c0.37-0.272 1.034 0 1.504 0.606z" fill="#181818" /><path d="M376.19802 205.75l137.648-90.294 64.644-49.992 1.054-0.82 0.528 1.23c0.196 0.45 88.81 302.704 81.914 379.968l-2.07-0.196c6.506-72.868-74.958-363.012-81.23-377.722l-63.608 49.19-0.058 0.058-137.688 90.332-1.134-1.754z" fill="#202020" /><path d="M310.65602 236.362c1.212-0.88 3.77 0.626 5.684 3.34 1.934 2.716 2.5 5.626 1.27 6.486-1.212 0.88-3.77-0.626-5.684-3.34-1.934-2.716-2.5-5.626-1.27-6.486z" fill="#FFCBBB" /><path d="M314.73802 233.118c1.23-0.86 3.77 0.644 5.704 3.36 1.914 2.716 2.482 5.606 1.27 6.486-1.23 0.86-3.77-0.626-5.704-3.36-1.914-2.714-2.48-5.606-1.27-6.486z" fill="#EBC1B4" /><path d="M319.42802 230.54c1.212-0.86 3.77 0.644 5.684 3.36 1.934 2.716 2.5 5.606 1.27 6.486-1.212 0.86-3.77-0.626-5.684-3.36-1.934-2.716-2.502-5.606-1.27-6.486z" fill="#FFCBBB" /><path d="M323.37402 227.982c1.212-0.88 3.77 0.626 5.684 3.34 1.934 2.716 2.5 5.626 1.27 6.486-1.212 0.88-3.77-0.626-5.684-3.34-1.934-2.716-2.502-5.628-1.27-6.486z" fill="#EBC1B4" /><path d="M225.61802 142.512a29.426 29.426 0 0 1-0.88-1.446l-0.04-0.04-0.02-0.058a102.574 102.574 0 0 1-0.8-1.388l-0.02-0.058c-0.254-0.468-0.508-0.918-0.722-1.368l-0.058-0.118c-0.214-0.43-0.41-0.86-0.606-1.27l-0.078-0.196a16.662 16.662 0 0 1-0.528-1.25l-0.04-0.098a31.4 31.4 0 0 1-0.488-1.23l-0.058-0.176c-0.136-0.39-0.274-0.782-0.39-1.172l-0.058-0.196c-0.118-0.372-0.214-0.762-0.332-1.134l-0.04-0.176a31.514 31.514 0 0 1-0.274-1.152l-0.02-0.118c-0.078-0.39-0.156-0.762-0.214-1.152l-0.04-0.156c-0.058-0.352-0.098-0.704-0.156-1.074l-0.02-0.176a23.5 23.5 0 0 1-0.098-1.134v-0.058c-0.04-0.372-0.04-0.742-0.058-1.114v-0.098-1.134l0.02-0.02v-0.02c0-0.372 0.02-0.722 0.058-1.094v-0.08l0.118-1.074v-0.02l0.176-1.036 0.04-0.156c0.058-0.312 0.118-0.626 0.196-0.918l0.02-0.098c0.078-0.312 0.176-0.626 0.254-0.938l0.04-0.118c0.098-0.294 0.176-0.586 0.294-0.88l0.04-0.136c0.118-0.294 0.214-0.546 0.332-0.82l0.058-0.176c0.118-0.254 0.234-0.528 0.352-0.8l0.078-0.136c0.136-0.254 0.254-0.508 0.39-0.762l0.078-0.136c0.136-0.274 0.294-0.508 0.43-0.762l0.078-0.118c0.156-0.254 0.312-0.508 0.488-0.742l0.058-0.118c0.156-0.234 0.332-0.468 0.508-0.684l0.098-0.156c0.176-0.234 0.372-0.45 0.546-0.684l0.058-0.078c0.196-0.214 0.39-0.45 0.586-0.664l0.078-0.098c0.196-0.214 0.39-0.41 0.586-0.626l0.156-0.136c0.214-0.214 0.43-0.41 0.644-0.626h0.02l0.02-0.02c0.234-0.214 0.468-0.41 0.704-0.606 8.478-7.092 21.998-7.854 29.694 0.488l8.068 8.732a751.62 751.62 0 0 0 2.794 2.91c-4.63 5.684-11.214 11.37-19.144 16.196-7.58 4.59-15.276 7.698-22.212 9.26-0.16 0.05-0.764-3.31-0.764-3.31z" fill="#6C4C40" /><path d="M247.96602 167.636l-0.704 0.214-0.098 0.04-0.586 0.156h-0.02l-0.722 0.214-0.664 0.176h-0.04l-0.722 0.196-0.626 0.156-0.098 0.02-0.704 0.156-0.664 0.156-0.058 0.02-0.722 0.136-0.606 0.136-0.118 0.02-0.704 0.136-0.626 0.118-0.098 0.02-0.722 0.118-0.02 0.02-0.43 0.058-0.684 0.118-0.762 0.118-0.88 0.118-0.45 0.058-0.958 0.118-0.488 0.058-0.664 0.058-0.8 0.078-0.488 0.04-0.84 0.058-0.704 0.058-0.508 0.02-0.898 0.058h-0.468l-0.82 0.04h-0.468l-0.898 0.02h-0.312l-0.938-0.02h-0.43l-0.82-0.04h-0.45l-0.898-0.058-0.274-0.02-0.996-0.078-0.214-0.02-0.938-0.078-0.312-0.04-0.88-0.098-0.294-0.04-0.898-0.136-0.214-0.04-0.84-0.136-0.312-0.078-0.84-0.156-0.156-0.04c-0.312-0.058-0.606-0.136-0.918-0.214l-0.098-0.02a56.906 56.906 0 0 1-0.898-0.234l-0.098-0.04c-0.294-0.078-0.586-0.176-0.86-0.254l-0.136-0.058c-0.274-0.078-0.546-0.176-0.82-0.274l-0.04-0.02a35.09 35.09 0 0 1-0.8-0.294l-0.058-0.02-0.058-0.04c-0.254-0.098-0.488-0.214-0.742-0.312l-0.04-0.02-0.058-0.04a12.142 12.142 0 0 1-0.704-0.352h-0.02c-0.274-0.136-0.508-0.274-0.742-0.41 0 0 14.632-14.554 16.116-17.464 0.86-1.642 1.524-3.048 1.934-3.946 6.936-1.562 14.632-4.67 22.212-9.26l0.02-0.02h0.02l0.02-0.02 0.02-0.02 0.04-0.02 0.02-0.02h0.02l0.02-0.02h0.02l0.02-0.02h0.02l0.02-0.02 0.02-0.02h0.02l0.02-0.02h0.02v-0.02l0.02-0.02h0.02l0.02-0.02h0.02l0.02-0.02h0.02l0.02-0.02h0.02v-0.02l0.04-0.02h0.02l0.02-0.02 0.02-0.02h0.02l0.02-0.02h0.02l0.02-0.02h0.02l0.02-0.02 0.02-0.02h0.02v-0.02h0.04l0.02-0.04h0.02l0.02-0.02h0.02l0.02-0.02h0.02l0.02-0.02 0.04-0.02 0.02-0.02 0.02-0.02h0.02l0.02-0.02 0.02-0.02c7.462-4.67 13.656-10.12 18.09-15.53 4.65 3.458 32.996-15.062 32.214-5.822 0 0-17.816-2.168-22.486 26.1-2.31 13.81-15.166 22.64-29.524 26.998z" fill="#5C4036" /></svg>