<?xml version="1.0" standalone="no"?><!DOCTYPE svg PUBLIC "-//W3C//DTD SVG 1.1//EN" "http://www.w3.org/Graphics/SVG/1.1/DTD/svg11.dtd"><svg class="icon" width="200px" height="200.00px" viewBox="0 0 1024 1024" version="1.1" xmlns="http://www.w3.org/2000/svg"><path d="M511.994 0C794.77 0 1024 229.23 1024 511.994 1024 794.77 794.77 1024 511.994 1024 229.23 1024 0 794.77 0 511.994 0 229.23 229.23 0 511.994 0z" fill="#FFECB4" /><path d="M935.928 294.35c5.318 0 10.33 0.868 14.768 2.384 4.802-3.194 11.388-5.166 18.642-5.166 1.726 0 3.404 0.106 5.036 0.316a508.85 508.85 0 0 1 22.246 54.566c-3.85 2.9-9.428 4.72-15.626 4.72-5.846 0-11.13-1.608-14.944-4.238-3.816 2.63-9.098 4.238-14.944 4.238-5.552 0-10.612-1.468-14.37-3.85-3.838 2.852-9.368 4.648-15.532 4.648-5.752 0-10.964-1.562-14.756-4.108-1.738 0.258-3.546 0.4-5.4 0.4-13.842 0-25.052-7.63-25.052-17.046s11.212-17.034 25.052-17.034c0.752 0 1.502 0.024 2.242 0.07 1.774-11.188 15.71-19.9 32.638-19.9z" fill="#FFFFFF" /><path d="M542.036 140.76c104.096 0 188.482 84.386 188.482 188.482s-84.386 188.482-188.482 188.482-188.482-84.386-188.482-188.482S437.94 140.76 542.036 140.76z" fill="#FFB54C" /><path d="M491.484 64.804s11.588-2.488 21.284-0.634c9.708 1.866 19.828 9.92 30.782 10.542s8.676-3.51 8.676-3.51-7.02 1.034-8.888-4.954c-1.854-6 5.788-10.754 17.562-19.006 11.774-8.264 14.052-16.53 11.774-21.696 0 0-2.066 3.298-11.774 8.464-9.708 5.178-16.73 14.674-24.372 21.484-7.642 6.82-8.066 7.232-15.296 5.788-7.218-1.444-22.716-3.71-29.748 3.522z"  /><path d="M625.846 670.774c0.212-0.106 0.846-0.27 1.784-0.494l0.036-0.012c0.622-0.14 1.362-0.306 2.208-0.482l0.07-0.012a206.96 206.96 0 0 1 8.852-1.632h0.024c2.312-0.364 4.508-0.67 6.186-0.822 3.558-0.328 6.61-0.798 8.476-0.61 5.764-48.004 3.24-83.752 1.702-98.11-1.984-1.314-3.674-3.592-4.062-6.234-0.376-2.57 1.21-5.236 3.31-6.656a1749.212 1749.212 0 0 0-0.904-19.348l-0.012-0.246c-0.61-11.482-1.468-25.71-2.548-38.67l-0.012-0.234c-0.598-7.208-1.268-14.006-1.996-19.7l-0.41 0.012-0.4 0.012-0.388 0.024h-0.13c-1.596 0.07-3.076 0.14-4.426 0.2h-0.036l-0.318 0.012-0.294 0.024-0.306 0.012h-0.036c-1.35 0.058-2.536 0.118-3.558 0.164l-0.152 0.012h-0.152l-0.164 0.012h-0.164l-0.152 0.012-0.152 0.012h-0.012l-1.198 0.058h-0.198l-0.058 0.012h-0.14l-0.07 0.012h-0.186l-0.058 0.012h-0.116l-0.046 0.012h-0.046l-0.962 0.046c-1.034 0.34-2.36 0.68-3.862 1.022h-0.012c-0.504 0.106-1.022 0.212-1.562 0.328l-0.364 0.07-0.164 0.036c-0.434 0.082-0.892 0.164-1.338 0.246l-0.164 0.036-0.316 0.058c-0.634 0.118-1.28 0.224-1.926 0.34l-0.152 0.024-0.082 0.012-0.234 0.046-1.068 0.176-0.246 0.036-0.246 0.046c-0.504 0.082-0.998 0.152-1.48 0.234h-0.036l-0.294 0.046-0.164 0.024c-0.446 0.07-0.892 0.13-1.314 0.2h-0.012c-2.172 0.328-4.192 0.598-5.8 0.81l-0.106 0.012c-0.586 0.082-1.116 0.152-1.574 0.212h-0.036l-0.082 0.012-0.082 0.012h-0.07l-0.07 0.012-0.07 0.012-0.07 0.012-0.058 0.012c-0.892 0.106-1.42 0.164-1.42 0.164-4.262 2.124-6.386 6.386-6.386 6.386-0.528-2.654 3.722-9.04 3.722-9.04 0.422-0.774 1.174-1.468 2.16-2.078-2.548 0.246-4.814 1.28-4.814 1.28 0.798-2.394 5.846-4.79 5.846-4.79 0-3.44 22.728-3.358 26.156-1.338h11.47a83.3 83.3 0 0 0-1.256-6.704 131.268 131.268 0 0 1-7.102-0.212c-46.29-2.654-71.412-42.298-77.154-60.648-7.984-25.546 6.738-64.204 27.67-89.386 17.598-21.178 15.426-58.534-21.812-44.164 0 0-3.17 12.222-15.168 16.224-7.772 2.594-12.726 1.574-16.26-1.056-0.54-0.024-7.724-0.164-10.964 2.56-2.888 2.442-7.008 8.628-11.412 13.654-3.616 4.108-7.42 7.444-10.93 7.278-4.848-0.224-3.334-12.69-0.046-23.398 2.008-6.504 4.672-12.362 6.962-14.382 6.022-5.318 10.636-6.562 18.572-6.868l0.036 0.024c1.702-4.414 5.612-7.984 9.944-10.53 9.04-5.318 20.216-2.664 20.216-2.664s26.132-10.05 49.306 6.562c18.796 13.478 9.756 47.71-6.198 68.994-15.966 21.284-33.528 67.574-10.12 71.824 0 0 40.62-20.392 76.274-17.022 20.298 1.914 55.682 30.864 72.704 50.024 11.294 12.69 15.074 18.772 15.626 21.79 0.598 1.244 1.034 2.418 1.21 3.392 2.114 3.44 4.25 7.842 2.324 9.134-2.394 1.596-6.644-6.128-6.644-6.128s3.838 7.912 0.798 9.72c-1.808 1.068-5.366-2.606-8.452-6.516-2.536-2.348-5.564-5.646-8.346-8.734-5.752-4.626-11.858-9.474-14.956-10.248 0 0-23.656 14.898-56.856 19.464 2.042 0.224 4.132 0.446 6.268 0.67l0.564 0.058c1.702 0.176 3.416 0.352 5.154 0.528l0.306 0.024c2.442 0.258 4.908 0.504 7.372 0.74l0.246 0.024 1.96 0.2h0.024l0.67 0.058 0.364 0.046 3.018 0.294h0.036l0.61 0.058 0.294 0.024 2.994 0.294 0.234 0.012 0.528 0.058 0.388 0.036 1.738 0.164 0.118 0.012 0.458 0.036 0.446 0.046 0.082 0.012 3.828 0.352 0.2 0.024 0.4 0.036 0.388 0.036 0.106 0.012 3.076 0.282 0.306 0.024 0.306 0.036 0.294 0.024 0.164 0.012 2.57 0.246 0.598 0.046 0.212 0.024 0.224 0.012 0.13 0.024 2.312 0.212h0.012l0.152 0.012 0.152 0.012 0.14 0.012 0.152 0.012 0.14 0.012 0.152 0.024h0.14l3.182 0.294h0.036l0.082 0.012h0.082l0.082 0.012 0.082 0.012h0.082l0.082 0.012 0.07 0.012h0.082l0.082 0.012h0.082l0.082 0.012 0.07 0.012h0.082l0.082 0.012h0.082l0.07 0.012h0.082l0.07 0.012h0.046l0.704 0.07c1.55-1.21 3.558-2.03 5.67-2.008 6.258 0.07 11.306 11.388-0.224 11.434-1.574 0.012-2.888-0.13-3.98-0.376l-0.024-0.012h-0.024l-0.036-0.012-0.046-0.012-0.046-0.012h-0.048l-0.036-0.024h-0.046l-0.046-0.012v-0.012h-0.036l-0.046-0.012-0.036-0.012-0.046-0.012-0.036-0.012-0.118-0.036-0.046-0.012-0.036-0.012-0.046-0.012-0.036-0.012-0.046-0.012-0.036-0.024h-0.036l-0.036-0.024-0.036-0.012-0.046-0.012-0.036-0.012-0.036-0.012-0.036-0.012-0.036-0.012-0.046-0.012-0.036-0.024-0.036-0.012-0.036-0.012-0.036-0.012-0.024-0.012h-0.012l-0.036-0.024-0.036-0.012-0.036-0.012-0.012-0.012h-0.024l-0.036-0.012-0.036-0.024-0.036-0.012-0.036-0.012-0.024-0.024-0.036-0.012-0.036-0.012-0.012-0.012h-0.024l-0.036-0.024-0.024-0.012-0.036-0.012v-0.012l-0.036-0.012-0.036-0.012-0.024-0.024h-0.012l-0.046-0.024-0.036-0.024-0.036-0.012-0.024-0.012-0.036-0.024-0.024-0.012-0.036-0.024-0.024-0.012-0.036-0.024c-1.08-0.634-1.69-1.456-1.926-2.36l-1.292-0.024-0.94-0.012c-0.516-0.012-1.056-0.012-1.596-0.024l-1.092-0.012c-0.552 0-1.116 0-1.668-0.012h-3.852c-0.998 0-1.984 0-3.006 0.012h-1.08c-0.764 0.012-1.55 0.024-2.324 0.024h-0.058l-0.81 0.012h-0.212c-1.01 0.012-2.02 0.024-3.04 0.046h-0.846c-0.928 0.024-1.866 0.036-2.806 0.046l-0.036 0.012h-0.47l-2.196 0.046-0.458 0.012-0.576 0.012-2.172 0.046h-0.294l-0.61 0.012h-0.07l-2.394 0.07h-0.434l-0.552 0.024-1.984 0.046h-0.058l-0.516 0.012-0.504 0.024-2.208 0.058h-0.094l-0.458 0.012-0.47 0.012h-0.036c-3.264 0.106-6.468 0.212-9.58 0.306l-0.388 0.024h-0.13l-2.114 0.07-0.2 0.012h-0.234l-0.224 0.012-0.234 0.012h-0.176l-2.09 0.082-1.056 0.046-2.36 0.082-0.34 0.012-0.13 0.012-0.352 0.012h-0.248l-1.678 0.07h-0.046l-0.07 0.012h-0.198l-0.058 0.012h-0.256l-0.07 0.012h-0.256l-0.058 0.012h-0.024l-1.444 0.058 0.082 1.996v0.188l0.024 0.47 0.012 0.328 0.13 3.158 0.024 0.494 0.012 0.564 0.094 2.36 0.036 0.658 0.012 0.352 0.094 2.3 0.012 0.27 0.036 0.74v0.012l0.118 3.006 0.024 0.47 0.024 0.494 0.082 1.96 0.036 0.692 0.13 2.888 0.012 0.258c0.058 1.304 0.13 2.594 0.188 3.91v0.024c0.856 17.374 2.102 36.158 4.05 47.23l0.012 0.012V552.21l0.024 0.058V552.328l0.012 0.012V552.376c0.13 0.728 0.27 1.432 0.4 2.102l0.012 0.012V554.526l0.012 0.012v0.012c0.036 0.212 0.082 0.422 0.13 0.634l0.012 0.024 0.024 0.024 0.024 0.012 0.036 0.024 0.046 0.024 0.024 0.024c0.246 0.152 0.47 0.352 0.692 0.576l0.024 0.012 0.012 0.024 0.046 0.036v0.012l0.024 0.024 0.012 0.012 0.024 0.024 0.012 0.012 0.012 0.012 0.024 0.036 0.012 0.012 0.024 0.024 0.024 0.024 0.024 0.024 0.012 0.024 0.024 0.024 0.012 0.012 0.024 0.036 0.024 0.024 0.012 0.024 0.024 0.024 0.012 0.024 0.024 0.024 0.012 0.024h0.012l0.012 0.024c0.364 0.482 0.68 1.068 0.962 1.772v0.024l0.012 0.012v0.024l0.012 0.012v0.012l0.012 0.012v0.024l0.012 0.012v0.024l0.012 0.012v0.012l0.012 0.024v0.012l0.012 0.012v0.024l0.012 0.012v0.024l0.012 0.012v0.024l0.012 0.012v0.024l0.012 0.012v0.024l0.012 0.012v0.012l0.012 0.024v0.012l0.012 0.024V558.732l0.012 0.012 0.012 0.024V558.804l0.012 0.012 0.012 0.012V558.864l0.012 0.024 0.012 0.036v0.012l0.012 0.024V558.996l0.012 0.024 0.012 0.012v0.036l0.012 0.012v0.024l0.012 0.024 0.012 0.036v0.012l0.012 0.024V559.236l0.012 0.012 0.012 0.046v0.012l0.012 0.024v0.012c0.13 0.47 0.234 0.962 0.318 1.502 0.118 0.728 0.188 1.398 0.234 2.032v-0.012c0.024 0.246 0.036 0.482 0.036 0.704a11.66 11.66 0 0 1-0.13 2.218l-0.012 0.036v0.06l-0.012 0.036v0.024l-0.012 0.024v0.048l-0.012 0.024v0.036l-0.012 0.036v0.024l-0.012 0.036-0.012 0.024v0.036l-0.012 0.024v0.06l-0.012 0.036-0.012 0.024v0.036l-0.012 0.024-0.012 0.036v0.024l-0.012 0.036-0.012 0.024v0.024l-0.012 0.036v0.012l-0.012 0.012v0.024l-0.012 0.036v0.024l-0.012 0.024-0.012 0.036v0.024l-0.012 0.024-0.012 0.036v0.024l-0.012 0.024-0.012 0.024-0.012 0.036v0.024l-0.012 0.024-0.012 0.024v0.036l-0.012 0.024-0.012 0.024-0.012 0.024-0.012 0.024v0.036h-0.012l-0.012 0.024v0.024l-0.012 0.024-0.012 0.024v0.024h-0.012v0.024l-0.012 0.024-0.012 0.024-0.012 0.024v0.012l-0.012 0.012-0.012 0.024v0.024l-0.012 0.036-0.012 0.012-0.012 0.024c-0.34 0.74-0.786 1.28-1.304 1.656V571.268l0.012 2.488V574.31l0.012 2.43v0.752l0.012 2.77V601.484l-0.012 2.066v6.34l-0.012 0.41v3.146l-0.012 2.324V618.74l-0.012 0.364-0.012 3.992V626.126l-0.012 0.61v1.88l-0.012 0.962V632.452l-0.012 2.312v0.012l-0.012 0.822v2.278l-0.012 0.94V640.916l-0.012 0.81v0.106l-0.012 2.032v0.516l-0.012 2.606v0.834l-0.012 2.924v0.798l-0.012 1.562-0.012 0.798v0.188l-0.012 3.028v0.974l-0.012 2.23-0.012 0.774v0.13l-0.012 2.806v0.882l-0.012 1.644v0.716l-0.036 4.156a1.286 1.286 0 0 1 0.34 0.212c0.106 0.106 0.212 0.188 0.316 0.294l0.024 0.012h0.012l0.012 0.012v0.012h0.012l0.012 0.012 0.012 0.012 0.012 0.012 0.012 0.012h0.012v0.012l0.012 0.012 0.024 0.012 0.012 0.012 0.012 0.012 0.012 0.012v0.012h0.012l0.012 0.012h0.012v0.012h0.012l0.012 0.012 0.012 0.012 0.012 0.012 0.012 0.012 0.012 0.012 0.012 0.012 0.012 0.012 0.012 0.012 0.012 0.012h0.012v0.012h0.012l0.012 0.012v0.012h0.012l0.012 0.012 0.012 0.012h0.012v0.012l0.012 0.012h0.012v0.012h0.012l0.012 0.012v0.012h0.012l0.012 0.012 0.012 0.012 0.012 0.012 0.012 0.012c0.318 0.294 0.622 0.586 0.916 0.868l0.504 0.504c0.306 0.328 0.61 0.658 0.892 0.986 0.14 0.152 0.282 0.318 0.41 0.47 0.352 0.422 0.67 0.822 0.974 1.232h0.012c0.082 0.106 0.164 0.224 0.234 0.328a26.372 26.372 0 0 1 2.888 4.978v0.012l0.012 0.012v0.024h0.012v0.012l0.012 0.012v0.024h0.012V681.902h0.012v0.012l0.012 0.012v0.024l0.012 0.012v0.024h0.012v0.012l0.012 0.012v0.024l0.012 0.012v0.024h0.012v0.024l0.012 0.012v0.012l0.012 0.012v0.024h0.012v0.024h0.012v0.024c0.482 1.162 0.658 1.878 0.658 1.878 1.772 1.772 1.866 4.872 1.866 4.872 0-0.764-2.242-3.028-3.838-4.378-3.722-0.634-21.12-3.452-28.54-2.266-2.924 0.798-3.992 2.664-4.52 3.722 0 0 0.176-1.702 0.928-3.204-2.842-6.656-7.338-8.628-8.688-9.086-0.634-0.118-1.022-0.212-1.022-0.212-2.394 0.798-5.318 1.326-5.318 1.326 0.794-1.944 4.516-3.54 5.584-4.08z m65.86-200.034l0.728 0.094 16.706 2.008h-55.658v-0.082c-0.024-0.586-0.058-1.15-0.082-1.69l-0.036-0.88c-0.036-0.798-0.082-1.538-0.118-2.184v-0.024l-0.046-0.846v-0.07a71.066 71.066 0 0 0-0.07-0.962l5.8 0.704 0.34 0.036 0.446 0.058 2.958 0.352 0.67 0.082 0.282 0.036 3.182 0.388 0.282 0.024 0.81 0.094 2.934 0.364 0.704 0.082 4.062 0.482 0.152 0.024 0.61 0.07 0.118 0.024 3.58 0.422 0.752 0.094 3.006 0.364 1.034 0.118 2.7 0.328 0.504 0.058 3.65 0.432z m-40.748 26.474z" fill="#E55000" /><path d="M268.112 151.654c9.52 0 18.502 1.538 26.462 4.274 8.606-5.74 20.392-9.274 33.4-9.274 22.528 0 41.406 10.6 46.454 24.864 11.258 2.29 20.286 8.076 24.406 15.496a52.66 52.66 0 0 1 4.12-0.152c20.802 0 37.684 11.47 37.684 25.628 0 14.146-16.882 25.616-37.684 25.616-6.492 0-12.596-1.104-17.914-3.064-4.578 10.648-19.042 18.42-36.182 18.42-10.472 0-19.934-2.9-26.778-7.596-6.832 4.696-16.306 7.596-26.778 7.596-9.944 0-19.006-2.63-25.746-6.902-6.892 5.118-16.788 8.336-27.812 8.336-10.32 0-19.652-2.806-26.45-7.372a64.83 64.83 0 0 1-9.662 0.704c-24.806 0-44.904-13.666-44.904-30.524S180.826 187.18 205.632 187.18c1.338 0 2.688 0.046 4.004 0.13 3.194-20.054 28.152-35.656 58.476-35.656z" fill="#FFFFFF" /><path d="M276.096 104.8s11.588-2.478 21.272-0.622c9.72 1.854 19.84 9.92 30.794 10.542 10.954 0.61 8.676-3.522 8.676-3.522s-7.02 1.044-8.886-4.954c-1.854-5.988 5.788-10.754 17.562-18.994 11.774-8.264 14.052-16.53 11.774-21.706 0 0-2.066 3.31-11.774 8.476-9.708 5.166-16.73 14.674-24.372 21.472-7.642 6.832-8.066 7.244-15.296 5.8-7.222-1.458-22.718-3.722-29.75 3.508z"  /><path d="M9.72 611.652h1004.548C967.896 846.718 760.666 1024 511.994 1024 263.334 1024 56.092 846.718 9.72 611.652z" fill="#B1E9F1" /><path d="M587.352 611.652h426.916a509.452 509.452 0 0 1-5.87 26.18c-36.124 0.846-75.298 1.314-116.248 1.314-180.476 0-326.764-9.04-326.764-20.204 0-2.57 7.784-5.036 21.966-7.29zM776.456 656.604c102.606 0 185.77 4.026 185.77 9.016s-83.164 9.028-185.77 9.028c-102.594 0-185.758-4.038-185.758-9.028 0-4.988 83.164-9.016 185.758-9.016z m180.674 108.522c-1.232 2.16-2.5 4.308-3.756 6.456-25.346 3.744-89.81 6.41-165.354 6.41-97.662 0-176.836-4.45-176.836-9.944s79.172-9.944 176.836-9.944c79.618 0.002 146.934 2.96 169.11 7.022zM24.536 668.92c-0.552-1.69-1.116-3.382-1.644-5.084 13.758-2.876 51.772-4.942 96.512-4.942 56.34 0 102.018 3.288 102.018 7.326 0 4.05-45.68 7.326-102.018 7.326-43.072-0.002-79.912-1.914-94.868-4.626z m304.646 80.944c125.192 0 226.682 2.7 226.682 6.022s-101.49 6.022-226.682 6.022-226.682-2.7-226.682-6.022c0-3.32 101.49-6.022 226.682-6.022z m-52.206 35.456c92.052 0 166.67 2.466 166.67 5.494 0 3.04-74.618 5.506-166.67 5.506-92.04 0-166.658-2.466-166.658-5.506 0-3.03 74.618-5.494 166.658-5.494z m243.166 34.902c102.124 0 184.924 3.028 184.924 6.774 0 3.734-82.8 6.762-184.924 6.762s-184.912-3.028-184.912-6.762c-0.002-3.746 82.788-6.774 184.912-6.774z" fill="#DFF5F9" /></svg>