<?xml version="1.0" standalone="no"?><!DOCTYPE svg PUBLIC "-//W3C//DTD SVG 1.1//EN" "http://www.w3.org/Graphics/SVG/1.1/DTD/svg11.dtd"><svg class="icon" width="200px" height="200.00px" viewBox="0 0 1024 1024" version="1.1" xmlns="http://www.w3.org/2000/svg"><path d="M512.01 0C794.768 0 1024 229.232 1024 512.01 1024 794.768 794.768 1024 512.01 1024 229.232 1024 0 794.768 0 512.01 0 229.232 229.232 0 512.01 0z" fill="#B1E9F1" /><path d="M386.924 29.734c63.354 0 114.732 51.36 114.732 114.732 0 63.354-51.378 114.732-114.732 114.732-63.374 0-114.752-51.378-114.752-114.732-0.002-63.374 51.378-114.732 114.752-114.732z" fill="#FFCB00" /><path d="M233.784 140.618a52.4 52.4 0 0 1 23.56 5.588 42.346 42.346 0 0 1 29.734-12.132c20.044 0 36.844 13.87 41.338 32.546a33.62 33.62 0 0 1 21.724 20.278 32.726 32.726 0 0 1 3.672-0.196c18.5 0 33.542 15.022 33.542 33.562 0 18.52-15.042 33.542-33.542 33.542-5.782 0-11.214-1.466-15.942-4.024-4.082 13.928-16.956 24.106-32.214 24.106a33.414 33.414 0 0 1-23.834-9.944 33.376 33.376 0 0 1-23.834 9.944 33.474 33.474 0 0 1-22.916-9.044 33.432 33.432 0 0 1-24.752 10.92 33.37 33.37 0 0 1-23.54-9.65 38.976 38.976 0 0 1-8.596 0.938c-22.076 0-39.97-17.894-39.97-39.97s17.894-39.97 39.97-39.97c1.192 0 2.384 0.078 3.556 0.176 2.852-26.236 25.064-46.67 52.044-46.67zM582.572 60.912c8.478 0 16.468 2.012 23.54 5.568a42.382 42.382 0 0 1 29.734-12.132c20.044 0 36.864 13.89 41.356 32.546a33.602 33.602 0 0 1 21.724 20.298 32.36 32.36 0 0 1 3.654-0.214c18.52 0 33.542 15.022 33.542 33.562 0 18.52-15.022 33.542-33.542 33.542-5.764 0-11.194-1.466-15.942-4.024-4.064 13.928-16.938 24.106-32.194 24.106a33.38 33.38 0 0 1-23.834-9.944 33.38 33.38 0 0 1-23.834 9.944 33.474 33.474 0 0 1-22.916-9.044 33.392 33.392 0 0 1-24.752 10.92 33.334 33.334 0 0 1-23.54-9.65 39.156 39.156 0 0 1-8.616 0.938c-22.076 0-39.95-17.894-39.95-39.97s17.876-39.95 39.95-39.95c1.212 0 2.402 0.058 3.576 0.156 2.834-26.238 25.066-46.652 52.044-46.652z" fill="#FFFFFF" /><path d="M0.508 534.26h1022.984C1011.848 806.706 787.326 1024 512.01 1024S12.17 806.706 0.508 534.26z" fill="#7FC583" /><path d="M806.118 389.032a5.206 5.206 0 0 1-3.418-1.308l-62.944-55.774a5.14 5.14 0 0 1-0.43-7.268 5.146 5.146 0 0 1 7.286-0.45l62.924 55.774a5.18 5.18 0 0 1 0.45 7.286c-1.034 1.136-2.44 1.74-3.868 1.74zM810.534 401.556a5.168 5.168 0 0 1-4.766-3.184 5.144 5.144 0 0 1 2.794-6.74l83.768-34.696a5.158 5.158 0 1 1 3.946 9.534l-83.768 34.696a5.512 5.512 0 0 1-1.974 0.39z" fill="#8B6E62" /><path d="M783.848 330.64c-0.234 26.94-22.27 48.586-49.19 48.35-26.94-0.234-48.586-22.27-48.35-49.21 0.234-26.94 22.252-48.586 49.19-48.35 26.94 0.234 48.584 22.272 48.35 49.21z" fill="#689D38" /><path d="M804.79 576.262h-0.078c-5.704-0.04-10.276-4.708-10.236-10.412l2.52-319.506a10.33 10.33 0 0 1 10.334-10.236h0.078a10.318 10.318 0 0 1 10.236 10.392l-2.54 319.526a10.31 10.31 0 0 1-10.314 10.236z" fill="#8B6E62" /><path d="M890.748 250.916c-0.39 46.104-38.094 83.144-84.198 82.734-46.084-0.41-83.124-38.094-82.714-84.198 0.39-46.084 38.094-83.124 84.18-82.734 46.102 0.41 83.142 38.114 82.732 84.198z" fill="#9BCB64" /><path d="M890.748 250.916c-0.39 45.616-37.294 82.342-82.734 82.734V166.718c46.104 0.41 83.144 38.114 82.734 84.198z" fill="#7CB142" /><path d="M954.376 341.738c-0.312 35.36-29.226 63.764-64.584 63.452-35.36-0.312-63.764-29.226-63.472-64.584 0.312-35.36 29.226-63.764 64.584-63.452 35.36 0.31 63.764 29.224 63.472 64.584z" fill="#689D38" /><path d="M605.722 354.65a5.1 5.1 0 0 1-3.38-1.27l-60.208-52.414c-2.148-1.876-2.384-5.138-0.508-7.286s5.138-2.364 7.286-0.488l60.208 52.414a5.164 5.164 0 0 1 0.488 7.286 5.1 5.1 0 0 1-3.886 1.758zM610.02 366.508a5.16 5.16 0 0 1-2.014-9.906l79.236-33.64a5.186 5.186 0 0 1 6.778 2.736 5.154 5.154 0 0 1-2.734 6.76l-79.256 33.64a5.12 5.12 0 0 1-2.01 0.41z" fill="#8B6E62" /><path d="M584.154 299.15c0 25.572-20.746 46.3-46.318 46.3s-46.3-20.728-46.3-46.3c0-25.572 20.728-46.32 46.3-46.32 25.572 0 46.318 20.748 46.318 46.32z" fill="#9BCB64" /><path d="M605.722 534.242a10.304 10.304 0 0 1-10.314-10.314V218.994c0-5.684 4.61-10.314 10.314-10.314s10.334 4.63 10.334 10.314v304.932a10.322 10.322 0 0 1-10.334 10.316z" fill="#8B6E62" /><path d="M684.978 222.57c0 43.78-35.476 79.256-79.256 79.256-43.76 0-79.236-35.476-79.236-79.256 0-43.76 35.476-79.236 79.236-79.236 43.78 0 79.256 35.476 79.256 79.236z" fill="#689D38" /><path d="M684.978 222.57c0 43.78-35.476 79.256-79.256 79.256V143.334c43.78 0 79.256 35.476 79.256 79.236z" fill="#54892E" /><path d="M746.126 308.252c0 33.582-27.214 60.794-60.794 60.794-33.562 0-60.776-27.214-60.776-60.794 0-33.562 27.214-60.776 60.776-60.776 33.58 0.002 60.794 27.214 60.794 60.776z" fill="#9BCB64" /><path d="M147.044 382.332a5.16 5.16 0 0 1-2.012-9.906l69.976-29.694a5.168 5.168 0 0 1 6.76 2.734 5.144 5.144 0 0 1-2.736 6.76L149.074 381.92a4.944 4.944 0 0 1-2.03 0.412z" fill="#8B6E62" /><path d="M257.91 345.136c0 22.584-18.304 40.888-40.888 40.888s-40.888-18.304-40.888-40.888 18.304-40.908 40.888-40.908 40.888 18.326 40.888 40.908z" fill="#9BCB64" /><path d="M147.044 550.476a10.334 10.334 0 0 1-10.314-10.334V293.192a10.316 10.316 0 0 1 10.314-10.314 10.32 10.32 0 0 1 10.334 10.314v246.95a10.336 10.336 0 0 1-10.334 10.334z" fill="#8B6E62" /><path d="M224.602 281.176c0 42.842-34.714 77.556-77.556 77.556-42.822 0-77.556-34.714-77.556-77.556 0-42.822 34.734-77.556 77.556-77.556 42.84 0 77.556 34.734 77.556 77.556z" fill="#689D38" /><path d="M224.602 281.176c0 42.842-34.714 77.556-77.556 77.556V203.62c42.84 0 77.556 34.734 77.556 77.556z" fill="#54892E" /><path d="M147.044 413.57a5.18 5.18 0 0 1-3.38-1.25l-53.176-46.3a5.162 5.162 0 0 1-0.508-7.268 5.148 5.148 0 0 1 7.286-0.508l53.176 46.28a5.162 5.162 0 0 1 0.508 7.268 5.094 5.094 0 0 1-3.906 1.778z" fill="#8B6E62" /><path d="M130.752 351.154c0 29.656-24.028 53.684-53.664 53.684-27.526 0-50.206-20.728-53.312-47.412a505.898 505.898 0 0 1 16.898-45.694 53.384 53.384 0 0 1 36.414-14.242c29.636-0.002 53.664 24.028 53.664 53.664z" fill="#9BCB64" /><path d="M136.73 392.588l-14.456-12.58a53.226 53.226 0 0 0 8.166-23.092c2.052 0.45 4.162 0.762 6.29 1.054v34.618z" fill="#FFFFFF" /><path d="M421.442 393.8a5.126 5.126 0 0 1-4.748-3.146 5.144 5.144 0 0 1 2.734-6.76l83.456-35.438a5.204 5.204 0 0 1 6.778 2.754 5.154 5.154 0 0 1-2.754 6.76l-83.456 35.418a4.852 4.852 0 0 1-2.01 0.412z" fill="#8B6E62" /><path d="M553.68 350.41c0 26.94-21.84 48.78-48.78 48.78s-48.78-21.84-48.78-48.78 21.84-48.78 48.78-48.78c26.938 0 48.78 21.842 48.78 48.78z" fill="#689D38" /><path d="M421.442 587.378a10.304 10.304 0 0 1-10.314-10.314v-288.6c0-5.704 4.61-10.334 10.314-10.334s10.314 4.63 10.314 10.334v288.6a10.302 10.302 0 0 1-10.314 10.314z" fill="#8B6E62" /><path d="M504.898 274.124c0 46.104-37.352 83.476-83.456 83.476s-83.476-37.372-83.476-83.476c0-46.084 37.372-83.456 83.476-83.456s83.456 37.372 83.456 83.456z" fill="#9BCB64" /><path d="M504.898 274.124c0 46.104-37.352 83.476-83.456 83.476V190.668c46.104 0 83.456 37.372 83.456 83.456z" fill="#7CB142" /><path d="M421.442 431.054a5.062 5.062 0 0 1-3.38-1.27l-63.432-55.208c-2.148-1.876-2.384-5.138-0.508-7.268a5.148 5.148 0 0 1 7.286-0.508l63.412 55.208a5.164 5.164 0 0 1 0.508 7.286c-1.014 1.174-2.44 1.76-3.886 1.76z" fill="#8B6E62" /><path d="M401.986 357.6c0 35.36-28.658 64.018-64.018 64.018s-64.018-28.658-64.018-64.018 28.658-64.018 64.018-64.018 64.018 28.658 64.018 64.018z" fill="#689D38" /><path d="M940.466 464.246c39.852 0 73.376 27.038 83.26 63.764-0.234 7.54-0.606 15.022-1.152 22.466h-168.338c0-47.628 38.602-86.23 86.23-86.23z" fill="#9BCB64" /><path d="M940.466 464.246c39.852 0 73.376 27.038 83.26 63.764-0.234 7.54-0.606 15.022-1.152 22.466h-82.108v-86.23z" fill="#7CB142" /><path d="M813.952 489.154c33.874 0 61.322 27.448 61.322 61.322h-122.644c0-33.876 27.448-61.322 61.322-61.322z" fill="#9BCB64" /><path d="M813.952 489.154c33.874 0 61.322 27.448 61.322 61.322h-61.322v-61.322z" fill="#7CB142" /><path d="M884.886 489.192c33.836 0 61.264 27.428 61.264 61.284h-122.528c0-33.856 27.428-61.284 61.264-61.284z" fill="#689D38" /><path d="M884.886 489.192c33.836 0 61.264 27.428 61.264 61.284h-61.264v-61.284z" fill="#54892E" /><path d="M99.378 519.55c-39.54 0-71.598 32.058-71.598 71.598h143.196c0-39.54-32.058-71.598-71.598-71.598z" fill="#9BCB64" /><path d="M99.378 591.148h71.598c0-39.54-32.058-71.598-71.598-71.598v71.598z" fill="#7CB142" /><path d="M191.586 540.238c-28.132 0-50.93 22.798-50.93 50.91h101.84c0-28.112-22.798-50.91-50.91-50.91z" fill="#9BCB64" /><path d="M196.236 591.148h46.26c0-26.548-20.318-48.35-46.26-50.696v50.696z" fill="#7CB142" /><path d="M132.686 540.278c-28.112 0-50.89 22.778-50.89 50.87h101.762c-0.002-28.092-22.78-50.87-50.872-50.87z" fill="#689D38" /><path d="M136.73 591.148h46.826c0-26.724-20.61-48.644-46.808-50.714h-0.02v50.714z" fill="#54892E" /><path d="M566.084 493.334c-43.096 0-78.044 34.95-78.044 78.044h156.09c0-43.096-34.93-78.044-78.046-78.044z" fill="#7CB142" /><path d="M566.084 571.378h78.044c0-43.096-34.95-78.044-78.044-78.044v78.044z" fill="#9BCB64" /><path d="M666.596 515.878c-30.652 0-55.5 24.85-55.5 55.5h111.002c-0.002-30.65-24.852-55.5-55.502-55.5z" fill="#9BCB64" /><path d="M602.382 515.936c-30.612 0-55.442 24.81-55.442 55.442h110.904c0-30.632-24.83-55.442-55.462-55.442z" fill="#689D38" /><path d="M602.382 571.378h55.462c0-30.612-24.83-55.442-55.462-55.442v55.442z" fill="#54892E" /><path d="M929.936 570.636c-13.518 0-24.458 10.94-24.458 24.44h48.898c0-13.5-10.94-24.44-24.44-24.44z m-620.902-4.904c-28.072 0-50.852 22.758-50.852 50.852h101.702c0.002-28.092-22.758-50.852-50.85-50.852z m43.956-35.632c-10.96 0-19.848 8.888-19.848 19.868h39.716a19.86 19.86 0 0 0-19.868-19.868z m161.344 96.29c-13.5 0-24.458 10.94-24.458 24.44h48.898c0-13.5-10.94-24.44-24.44-24.44z m254.178-27.154c-10.96 0-19.868 8.888-19.868 19.868h39.736a19.86 19.86 0 0 0-19.868-19.868z" fill="#E5E5E5" /><path d="M498.1 645.908c234.31 0 424.256 34.46 424.256 76.97s-189.946 76.97-424.256 76.97-424.236-34.46-424.236-76.97 189.926-76.97 424.236-76.97z" fill="#66B96A" /></svg>