<?xml version="1.0" standalone="no"?><!DOCTYPE svg PUBLIC "-//W3C//DTD SVG 1.1//EN" "http://www.w3.org/Graphics/SVG/1.1/DTD/svg11.dtd"><svg class="icon" width="200px" height="200.00px" viewBox="0 0 1024 1024" version="1.1" xmlns="http://www.w3.org/2000/svg"><path d="M365.42 23.884c34.042 0 61.65 27.608 61.65 61.65s-27.608 61.65-61.65 61.65-61.65-27.608-61.65-61.65c0-24.118 13.844-44.98 34.004-55.118a555.316 555.316 0 0 1 15.754-5.382 61.34 61.34 0 0 1 11.892-1.15z" fill="#FFFFFF" /><path d="M512 0c282.77 0 512 229.23 512 512S794.77 1024 512 1024 0 794.77 0 512 229.23 0 512 0z" fill="#B1E3FB" /><path d="M152.314 739.866L474.916 54.592l341.574 685.274z" fill="#9BCB64" /><path d="M816.49 739.866L474.916 54.592v685.274z" fill="#54892E" /><path d="M591.1 739.866l305.134-528.144 115.58 188.948A513.38 513.38 0 0 1 1024 512c0 81.87-19.244 159.234-53.422 227.866H591.1z" fill="#9BCB64" /><path d="M1011.814 400.67l-115.58-188.948v528.144h74.344C1004.756 671.234 1024 593.87 1024 512a513.38 513.38 0 0 0-12.186-111.33z" fill="#54892E" /><path d="M4.27 578.368l204.566-354.092L531.926 752.44H59.896a508.212 508.212 0 0 1-55.626-174.072z" fill="#9BCB64" /><path d="M531.926 752.442L208.836 224.278v528.164z" fill="#54892E" /><path d="M131.588 653.628l-17.196-10.002-35.446 50.382-44.942 1.754C107.86 887.752 294 1024 512 1024c221.762 0 410.574-141.004 481.74-338.24l-37.63-26.4-14.038 10.08-62.216-49.758-24.098-3.14-57.38 15.792-24.08-17.022-25.424 20.18-32.97-12.674-22.07 5.05-34.12 15.754-11.366 18.268-34.14 16.358-25.016 2.242-79.334 39.326-72.51-32.308-30.532 9.008-18.094-28.33-54.184 14.468-42.154-40.924-55.548-22.052-30.454 11.834-19.264-16.32-55.53 38.436z" fill="#689D38" /><path d="M211.604 126.85c5.478 0 10.646 1.306 15.228 3.608a27.49 27.49 0 0 1 19.244-7.838c12.966 0 23.846 8.968 26.75 21.058a21.768 21.768 0 0 1 14.058 13.122c0.78-0.078 1.58-0.116 2.378-0.116 11.972 0 21.7 9.71 21.7 21.7s-9.73 21.72-21.7 21.72c-3.744 0-7.252-0.956-10.314-2.612-2.652 9.028-10.976 15.618-20.862 15.618a21.62 21.62 0 0 1-15.402-6.434 21.634 21.634 0 0 1-15.422 6.434 21.6 21.6 0 0 1-14.838-5.868 21.606 21.606 0 0 1-16.026 7.078 21.632 21.632 0 0 1-15.228-6.24 26.08 26.08 0 0 1-5.556 0.584c-14.292 0-25.872-11.562-25.872-25.854s11.582-25.854 25.872-25.854c0.76 0 1.54 0.038 2.3 0.098 1.832-16.986 16.202-30.204 33.69-30.204zM647.486 125.328c5.498 0 10.666 1.306 15.246 3.626a27.396 27.396 0 0 1 19.244-7.858c12.966 0 23.846 8.968 26.75 21.058a21.768 21.768 0 0 1 14.058 13.122c0.78-0.078 1.58-0.116 2.378-0.116 11.99 0 21.7 9.71 21.7 21.7s-9.71 21.72-21.7 21.72c-3.744 0-7.252-0.956-10.314-2.612-2.632 9.028-10.976 15.618-20.842 15.618a21.536 21.536 0 0 1-15.422-6.454 21.58 21.58 0 0 1-15.422 6.454 21.6 21.6 0 0 1-14.838-5.868 21.606 21.606 0 0 1-16.026 7.078 21.57 21.57 0 0 1-15.228-6.258c-1.794 0.41-3.666 0.604-5.556 0.604-14.292 0-25.872-11.562-25.872-25.854 0-14.272 11.582-25.872 25.872-25.872 0.76 0 1.54 0.04 2.3 0.116 1.834-16.984 16.222-30.204 33.672-30.204z" fill="#EDEDED" /><path d="M171.342 894.186l0.682-11.054 50.928 39.678 1.95-32.23 2.066-0.936 2.184-0.974 50.694-22.538c77.326-33.926 162.588-69.742 247.578-102.362l4.836-30.046 46.676 39.054 4.836-30.046 13.784-5.148a3154.258 3154.258 0 0 1 45.078-15.948l0.78-0.272 5.81-2.008 9.866-18.152 37.416 17.508 9.866-18.172 1.15-0.37 2.964-0.974c3.49-1.092 6.942-2.184 10.392-3.256l1.56-0.468 10.138-19.03 37.494 21.292 10.138-19.03 3.042-0.878 2.924-0.858c1.774-0.468 3.548-0.936 5.304-1.404l55.236-19.342 1.19-0.428 1.17-0.41 1.13-0.41 7.74-22.344 38.976 48.198 5.166-14.974 6.864-23.28 39.774 27.822 6.864-23.28 16.612-0.39c8.052 0.176 15.676 0.702 22.792 1.58 3.49 0.448 6.922 0.916 10.256 1.442C945.074 865.604 747.04 1024 512 1024c-130.828 0-250.15-49.074-340.658-129.814z" fill="#54892E" /><path d="M632.026 629.49c-13.454-16.242-12.888-37.552-11.016-49.894 0.78-3.334 1.482-6.648 2.164-9.982 1.97-9.652 3.822-19.224 6.824-28.836 1.736-5.596-2.3-21.914-3.568-25.658-3.042-8.988-9.106-11.23-15.324-16.612-8.482-7.332-18.718-9.69-29.304-9.398-9.982 0.272-19.984-0.468-29.986-0.994-1.19-0.078-2.672-1.54-3.334-2.73-0.858-1.58-1.326-3.51-1.482-5.342-0.156-1.774-0.39-4.368 0.624-5.264 2.808-2.516 6.006-5.46 9.476-6.2 4.776-0.994 8.656-1.598 11.972-6.142 3.822-5.206 3.996-11.426-2.144-13.004-6.2-1.58-8.014-7.272-12.518-10.178-0.506-0.332-0.662-1.988-0.312-2.71 1.404-2.788 0.838-4.972-2.398-6.942 1.774-0.468 2.886-0.604 3.84-1.052 3.158-1.442 6.786-2.398 9.28-4.602 4.29-3.822 8.266-8.13 11.582-12.79 2.808-3.938 5.128-7.876 10.198-9.242 1.462-0.39 2.846-1.716 3.822-2.964 6.142-7.702 12.166-15.48 18.172-23.28 0.896-1.19 1.52-2.612 2.066-4.016 2.672-6.726 1.112-13.004-2.164-19.088-0.506 1.58-0.488 3.12-0.526 4.66-0.058 2.496 0.274 5.07-0.312 7.428-3.822 15.228-15.636 21.232-28.524 23.846-2.906 0.584-3.198-0.994-2.36-3.334 2.378-6.61 4.406-13.376 7.136-19.828 2.086-4.914 4.29-10.12 7.74-14.038 9.788-11.114 9.28-22.91 3.978-35.466-0.332-0.78-0.506-1.638-0.74-2.476-2.126 2.164-1.814 4.25-1.736 5.772 0.254 4.62 0.916 9.262 0.74 13.862-0.176 4.172-1.52 8.17-5.42 10.626-2.242 1.404-3.626 1.54-4.64-1.618-2.3-7.02-5.01-13.922-7.682-20.824-0.448-1.17-1.482-2.144-2.242-3.198-0.956 1.404-1.112 2.36-1.072 3.314 0.214 5.148 0.506 10.276 0.722 15.402 0.118 2.944 0.214 5.81-3.198 7.35-0.604 0.254-0.956 1.852-0.858 2.768 0.41 4.368-2.632 6.864-6.786 5.4-1.424-0.488-3.704-1.286-5.088-1.892-10.666-5.752-17.704-15.812-27.198-23.124 0.058 1.442 0.488 2.554 1.19 3.452 7.798 9.964 15.618 19.926 26.244 27.198 3.158 2.144 6.318 3.918 10.432 3.51 4.036-0.41 4.972 0.546 4.562 4.698-1.326 13.356-6.084 24.352-19.516 30.182-4.932 2.144-9.28 5.79-13.59 9.164-5.128 4.016-11.094 4.952-17.196 5.478-1.326 0.116-3.178-1.052-3.996-2.204-0.39-0.546 0.74-2.73 1.716-3.606 5.108-4.66 7.312-10.744 8.696-17.178 0.916-4.27-0.02-8.266-2.632-11.854-0.35 0.624-0.468 1.228-0.332 1.774 2.378 9.202-5.03 20.14-13.122 23.494-3.392 1.424-6.454 1.384-9.808 0.078a27.72 27.72 0 0 0-7.214-1.676c-2.086-0.214-2.924-1.014-3.626-2.984-1.228-3.392-2.886-8.618-4.426-11.894-0.468 0.176-1.638 0.488-1.502 2.632 0.78 2.534 1.404 5.108 2.36 7.564 1.052 2.69 0.566 4.328-2.554 4.036-12.362-1.19-24.332-3.704-34.646-11.192-0.896-0.644-1.832-1.502-2.242-2.476-2.632-6.084-5.732-12.05-5.03-19.03 0.156-1.638-0.214-3.314-0.332-4.972-0.488-1.364-1.13-1.248-1.676-1.306-0.526 5.166-1.014 11.484-1.52 16.65-0.41 0.04-0.8 0.058-1.19 0.098-8.11-8.482-14.096-18.074-13.102-30.494 0.662-8.208 2.164-16.358 3.314-24.528 0.37-2.594 0.878-5.148 1.306-7.702-0.468-0.136-0.936-0.292-1.424-0.448-1.462 3.51-2.964 7.02-4.426 10.528-1.502 3.704-2.828 7.506-4.542 11.094-0.448 0.936-2.378 2.048-3.158 1.754-6.24-2.262-11.426-5.576-11.66-13.298-0.116-3.822 0.332-6.59-0.04-10.392-0.312-2.106-1.638-2.75-1.95-2.846-0.566 1.852-1.638 5.226-1.58 7.058 0.214 5.752 0.682 11.504 1.364 17.216 0.428 3.452 0.662 10.626 1.404 14.058-10.198-4.698-9.358-17.138-14.994-23.63-0.234 4.524-0.506 9.086 0.838 13.142 2.71 8.11 7.682 14.876 14.934 19.77 1.208 0.8 2.164 2.028 3.12 3.158 1.598 1.892 2.866 4.094 4.68 5.732 5.148 4.738 10.724 9.028 15.734 13.882 15.636 15.072 34.022 24.176 55.664 26.574 6.2 0.682 6.844 1.892 5.498 8.092-1.384 6.298-2.222 12.654 1.696 18.542 0.488 0.74 0.584 1.988 0.35 2.866-1.482 5.538-3.12 11.016-4.68 16.534-1.364 4.816-2.866 9.592-4.016 14.448-2.184 9.378-4.192 18.756-6.2 28.154-0.312 1.56-0.292 3.218-0.176 4.816 0.488 6.726 1.268 13.454 1.58 20.18 0.41 9.496 0.35 19.03 0.8 28.524 0.214 5.128 0.78 10.256 1.676 15.324 1.19 6.786 2.828 13.278 8.15 18.542 4.914 4.854 7.448 10.996 7.058 18.386-0.194 3.996 1.112 8.17 2.144 12.146 1.696 6.532 4.542 12.868 5.382 19.498 1.17 9.262 0.858 18.718 1.326 28.076 0.136 3.12 0.74 6.22 1.15 9.32 0.214 1.598 0.644 3.218 0.644 4.816 0 1.97-0.04 3.938-0.058 5.888-0.292 6.122-0.956 19.77-1.54 22.812 0 0-4.932 4.718-4.932 9.046h9.592s0.448-4.524 2.828-8.286c0 0 1.034-19.38 3.042-29.616l-0.04 0.02c0.098-0.624 0.194-1.228 0.272-1.872 0.662-5.206 2.71-10.276 2.886-15.462 0.39-12.146-0.02-24.314 0-36.46 0-2.612 0.41-5.226 0.584-7.858 0.194-2.886 2.476-11.756 14.7-12.732 4.854-0.956 10.294 2.398 10.88 7.214 0.956 7.954 1.502 15.968 1.794 23.982 0.136 3.822-0.604 7.702-1.19 11.522-0.76 4.914-2.846 9.866-0.254 14.7 3.9 7.312 1.618 15.364 2.418 23.28-0.272 6.24-0.896 19.516-1.404 22.52 0 0-4.308 4.718-4.308 9.046h8.462s0.488-4.524 2.554-8.286c0 0 0.546-12.908 1.696-23.222a0.688 0.688 0 0 0 0.234-0.136c0-0.02-0.098-0.04-0.214-0.058 0.254-2.242 0.526-4.368 0.858-6.2l-0.196 0.078c0.896-4.308 1.91-10.236 1.774-19.186-0.196-11.756 2.496-22.832 5.322-34.004 0.214-0.858 0.974-1.56 1.482-2.34 0.74 0.584 1.658 1.034 2.204 1.754 2.69 3.606 4.952 7.604 7.974 10.898 7.214 7.896 18.444 17.88 20.374 28.622 0.254 1.364 0.818 3.354 1.228 5.166 0.02 18.522-3.86 37.434-3.86 37.434-5.264 4.074-9.028 9.476-9.028 9.476h12.79c1.13-6.786 2.964-6.474 2.964-6.474s2.184-8.344 4.66-19.576l0.136 0.136c0.098-0.644 0.176-1.268 0.234-1.892 4.016-18.522 8.54-43.83 5.732-53.462 0.058-0.39 0.136-0.78 0.196-1.15a40.232 40.232 0 0 0 3.666 6.844c11.912 17.762 2.008 66.096 2.008 66.096-5.284 4.074-9.046 9.476-9.046 9.476h12.81c1.13-6.786 2.964-6.474 2.964-6.474s17.662-67.558 9.434-77.502z m-41.394-237.32c-1.364 6.044-12.38 8.52-18.346 5.712 5.986-1.852 11.972-3.724 18.346-5.712z m-23.708 14.602c-6.376 1.988-12.732 3.996-19.77 6.2 1.812-5.712 13.764-9.474 19.77-6.2z" fill="#FFED58" /><path d="M200.94 522.178V498.04h64.068c3.062-70.386 32.852-133.85 79.472-180.468 46.598-46.598 110.082-76.39 180.448-79.472V174.052h24.138v64.048c70.386 3.08 133.85 32.872 180.468 79.472 46.598 46.618 76.39 110.082 79.472 180.468h64.068v24.138h-64.068c-3.08 70.386-32.872 133.83-79.472 180.448-46.618 46.618-110.082 76.41-180.468 79.472v64.068h-24.138v-64.068c-70.386-3.062-133.85-32.854-180.448-79.472-46.618-46.618-76.41-110.082-79.472-180.448H200.94zM549.064 261.44v71.712h-24.138V261.44c-63.952 3.042-121.566 30.22-163.972 72.628-42.406 42.388-69.566 100.022-72.628 163.972h71.73v24.138h-71.73c3.062 63.952 30.22 121.566 72.628 163.972 42.406 42.406 100.022 69.586 163.972 72.628v-71.712h24.138v71.712c63.952-3.042 121.586-30.22 163.972-72.628 42.406-42.406 69.586-100.022 72.648-163.972h-71.73V498.04h71.73c-3.062-63.952-30.24-121.586-72.648-163.972-42.386-42.408-100.02-69.586-163.972-72.628z" fill="#FFFFFF" /></svg>