<?xml version="1.0" standalone="no"?><!DOCTYPE svg PUBLIC "-//W3C//DTD SVG 1.1//EN" "http://www.w3.org/Graphics/SVG/1.1/DTD/svg11.dtd"><svg class="icon" width="200px" height="200.00px" viewBox="0 0 1024 1024" version="1.1" xmlns="http://www.w3.org/2000/svg"><path d="M511.996 0C794.772 0 1024 229.228 1024 511.996 1024 794.772 794.772 1024 511.996 1024 229.228 1024 0 794.772 0 511.996 0 229.228 229.228 0 511.996 0z" fill="#DFF3FD" /><path d="M587.324 227.356c81.368 0 147.332 65.964 147.332 147.34 0 81.368-65.964 147.34-147.332 147.34-81.376 0-147.34-65.972-147.34-147.34 0-81.376 65.964-147.34 147.34-147.34z" fill="#FFEF76" /><path d="M0.85 541.194c48.048-38.984 130.118-95.228 190.682-82.446 90.914 19.196 160.606 125.268 229.292 114.148 68.686-11.11 152.53-145.458 214.144-132.32 61.614 13.128 156.568 130.292 216.164 121.21 59.596-9.09 72.734-153.544 148.482-181.82a71.148 71.148 0 0 1 6.588-2.11c11.584 42.758 17.798 87.718 17.798 134.138 0 87.434-21.936 169.742-60.574 241.736-151.296 24.842-668.188 75.766-865.34 59.624-56.296-77.192-91.536-170.72-97.236-272.16z" fill="#66B96A" /><path d="M768.222 606.372c-39.084-9.264-78.242-19.908-117.51-26.678-14.098-2.76-28.294-4.916-42.638-6.012a311.64 311.64 0 0 0-26.76-0.84c-8.916-0.092-17.834 0.164-26.76 0.84-14.344 1.096-28.542 3.252-42.648 6.012-39.258 6.77-78.416 17.414-117.502 26.678a360.76 360.76 0 0 1-24.85 3.354c-122.672 11.878-244.934-50.232-366.29-39.998 15.248 135.884 83.66 255.668 183.958 338.086a519.46 519.46 0 0 0 100.946 19.452l1.974 0.182c3.116 0.256 6.25 0.52 9.382 0.74l4.148 0.264c2.676 0.182 5.336 0.32 8.022 0.466 1.718 0.082 3.462 0.1 5.198 0.2 2.402 0.064 4.778 0.174 7.182 0.246 2.768 0.046 5.536 0.064 8.314 0.082 1.352 0.036 2.732 0.054 4.074 0.054l0.602-0.01c3.92 0 7.848-0.064 11.722-0.128l1.872-0.046c3.7-0.118 7.364-0.256 11.028-0.43l3.124-0.138c3.252-0.192 6.532-0.402 9.776-0.64l4.596-0.356c2.138-0.182 4.24-0.366 6.35-0.566a518.76 518.76 0 0 0 195.78-58.61 518.806 518.806 0 0 0 195.78 58.61c2.11 0.2 4.212 0.384 6.35 0.566l4.596 0.356c3.244 0.238 6.524 0.448 9.776 0.64l3.124 0.138c2.622 0.128 5.254 0.228 7.894 0.328 112.358-80.088 190.966-204.442 210.436-347.588-75.164 14.636-150.602 35.412-226.196 28.094a355.886 355.886 0 0 1-24.85-3.348z" fill="#B1E3FB" /><path d="M980.082 719.718c-84.236-16.628-168.71-48.002-253.85-41.524-62.712 4.778-122.39 29.966-185 36.042-132.146 12.8-263.818-60.29-394.394-36.298-35.522 6.532-71.738 20.154-107.68 30.726C116.258 893.818 298.91 1024 511.996 1024c208.818 0 388.418-125.02 468.086-304.282z" fill="#7FD3F9" /><path d="M195.754 875.444s146.062 1.59 348.584-62.666c92.742-29.428 187.394-57.046 284.604-52.388 40.812 1.946 81.414 7.794 121.65 15.898C860.946 924.734 698.074 1024 511.996 1024c-119.356 0-229.174-40.848-316.242-109.324v-39.232z" fill="#429F46" /><path d="M867.168 880.744c-65.142-3.692-232.426-17.652-391.004-67.964-92.742-29.428-187.394-57.046-284.604-52.388-39.752 1.9-79.302 7.492-118.516 15.276C162.606 924.46 325.67 1024 511.996 1024c137.938 0 263.114-54.562 355.172-143.256z" fill="#66B96A" /><path d="M835.382 908.938c-102.006-12.982-204.324-29.656-303.844-42.256-71.92-9.1-145.056-15.386-216.72-4.386-46.824 7.19-92.048 21.598-136.632 37.906C267.82 977.35 384.462 1024 511.996 1024c122.654 0 235.222-43.15 323.386-115.062z" fill="#388D3C" /><path d="M252.252 217.214s11.584-2.486 21.278-0.63c9.712 1.854 19.834 9.912 30.79 10.544 10.946 0.612 8.67-3.518 8.67-3.518s-7.026 1.032-8.89-4.952c-1.846-5.994 5.792-10.754 17.56-19.004 11.786-8.268 14.06-16.536 11.786-21.708 0 0-2.074 3.308-11.786 8.478-9.702 5.172-16.72 14.672-24.366 21.48-7.648 6.824-8.058 7.226-15.294 5.784-7.218-1.444-22.722-3.71-29.748 3.526zM334.578 249.036s11.576-2.486 21.278-0.63c9.712 1.854 19.834 9.912 30.79 10.544 10.946 0.612 8.67-3.518 8.67-3.518s-7.026 1.032-8.89-4.952c-1.846-5.994 5.792-10.754 17.56-19.004 11.786-8.268 14.06-16.536 11.786-21.708 0 0-2.074 3.308-11.786 8.478-9.702 5.172-16.728 14.672-24.366 21.48-7.648 6.824-8.068 7.226-15.294 5.784s-22.722-3.71-29.748 3.526zM345.908 182.552s11.584-2.486 21.278-0.622c9.72 1.854 19.834 9.912 30.79 10.534 10.954 0.622 8.67-3.518 8.67-3.518s-7.016 1.042-8.88-4.952c-1.854-5.994 5.784-10.754 17.56-19.004 11.776-8.26 14.052-16.528 11.776-21.698 0 0-2.064 3.308-11.776 8.478-9.712 5.162-16.728 14.672-24.366 21.47-7.648 6.824-8.068 7.236-15.294 5.792s-22.724-3.716-29.758 3.52zM265.436 141.246s11.584-2.486 21.278-0.622c9.712 1.854 19.834 9.912 30.79 10.534 10.946 0.622 8.67-3.518 8.67-3.518s-7.016 1.042-8.89-4.952c-1.846-5.994 5.792-10.754 17.56-19.004 11.786-8.26 14.06-16.528 11.786-21.698 0 0-2.074 3.308-11.786 8.478-9.702 5.162-16.72 14.672-24.366 21.47-7.648 6.824-8.058 7.236-15.284 5.792-7.228-1.44-22.732-3.706-29.758 3.52zM224.542 291.748s11.584-2.476 21.278-0.622c9.712 1.854 19.834 9.912 30.79 10.544 10.946 0.612 8.67-3.526 8.67-3.526s-7.026 1.042-8.89-4.952c-1.846-5.984 5.792-10.744 17.56-19.004 11.786-8.26 14.06-16.528 11.786-21.698 0 0-2.074 3.308-11.786 8.478-9.702 5.162-16.728 14.672-24.366 21.48-7.648 6.824-8.068 7.226-15.294 5.784-7.228-1.446-22.722-3.71-29.748 3.516zM177.728 220.44s11.576-2.486 21.27-0.63c9.72 1.854 19.844 9.922 30.798 10.544 10.946 0.612 8.67-3.518 8.67-3.518s-7.026 1.032-8.89-4.952c-1.854-5.994 5.792-10.754 17.56-19.004 11.786-8.268 14.052-16.536 11.786-21.708 0 0-2.074 3.308-11.786 8.478-9.712 5.172-16.728 14.672-24.366 21.48-7.648 6.824-8.068 7.226-15.294 5.784s-22.722-3.71-29.748 3.526zM702.166 313.62s11.584-2.476 21.278-0.622c9.712 1.854 19.834 9.912 30.79 10.534 10.946 0.622 8.67-3.518 8.67-3.518s-7.026 1.042-8.89-4.952c-1.846-5.994 5.792-10.754 17.56-19.004 11.786-8.26 14.06-16.528 11.786-21.698 0 0-2.074 3.308-11.786 8.478-9.702 5.162-16.72 14.672-24.366 21.47-7.648 6.834-8.058 7.236-15.294 5.792-7.218-1.44-22.722-3.706-29.748 3.52zM784.494 345.442s11.584-2.486 21.278-0.622c9.712 1.854 19.834 9.912 30.79 10.534 10.946 0.622 8.67-3.518 8.67-3.518s-7.026 1.042-8.89-4.952c-1.846-5.994 5.792-10.754 17.56-19.004 11.786-8.26 14.06-16.528 11.786-21.698 0 0-2.074 3.308-11.786 8.478-9.702 5.162-16.728 14.672-24.366 21.47-7.648 6.824-8.068 7.236-15.294 5.792-7.228-1.442-22.724-3.708-29.748 3.52zM795.822 278.966s11.584-2.486 21.278-0.63c9.72 1.864 19.834 9.922 30.79 10.544 10.954 0.612 8.67-3.518 8.67-3.518s-7.016 1.042-8.88-4.952c-1.854-5.994 5.792-10.754 17.56-19.004 11.776-8.268 14.052-16.528 11.776-21.698 0 0-2.064 3.308-11.776 8.47-9.712 5.172-16.728 14.672-24.366 21.48-7.648 6.824-8.068 7.236-15.294 5.792-7.228-1.454-22.722-3.72-29.758 3.516zM715.35 237.662s11.584-2.486 21.278-0.63c9.712 1.864 19.834 9.922 30.79 10.544 10.946 0.612 8.67-3.518 8.67-3.518s-7.016 1.042-8.89-4.952c-1.846-5.994 5.792-10.754 17.56-19.004 11.786-8.268 14.06-16.528 11.786-21.698 0 0-2.064 3.308-11.786 8.47-9.702 5.172-16.72 14.672-24.366 21.48-7.648 6.824-8.058 7.236-15.284 5.792-7.228-1.454-22.732-3.72-29.758 3.516zM674.456 388.162s11.584-2.486 21.278-0.63c9.712 1.864 19.834 9.922 30.79 10.544 10.946 0.612 8.67-3.518 8.67-3.518s-7.026 1.042-8.89-4.952c-1.846-5.994 5.792-10.754 17.56-19.004 11.786-8.26 14.06-16.528 11.786-21.698 0 0-2.074 3.308-11.786 8.478-9.702 5.162-16.728 14.672-24.366 21.47-7.648 6.824-8.068 7.236-15.294 5.792-7.226-1.442-22.722-3.718-29.748 3.518zM627.642 316.846s11.576-2.476 21.27-0.622c9.72 1.854 19.844 9.912 30.798 10.534 10.946 0.622 8.67-3.518 8.67-3.518s-7.026 1.042-8.89-4.952c-1.854-5.994 5.792-10.754 17.56-19.004 11.786-8.26 14.052-16.528 11.786-21.698 0 0-2.074 3.308-11.786 8.478-9.712 5.162-16.728 14.672-24.366 21.47-7.648 6.834-8.068 7.236-15.294 5.792-7.228-1.442-22.722-3.708-29.748 3.52z"  /><path d="M196.73 615.464c66.522 0 120.452 2.256 120.452 5.044 0 2.796-53.932 5.052-120.452 5.052-66.53 0-120.462-2.256-120.462-5.052 0.002-2.788 53.932-5.044 120.462-5.044z m581.066 84.856c46.586 0 84.346 2.932 84.346 6.56s-37.76 6.568-84.346 6.568c-46.576 0-84.346-2.942-84.346-6.568s37.77-6.56 84.346-6.56z m-239.9 57.578c45.746 0 82.83 2.486 82.83 5.546 0 3.07-37.084 5.554-82.83 5.554-45.746 0-82.83-2.486-82.83-5.554 0.002-3.062 37.086-5.546 82.83-5.546z m-274.718-43.444c63.058 0 114.176 2.084 114.176 4.632 0 2.558-51.118 4.632-114.176 4.632s-114.176-2.074-114.176-4.632c0.002-2.548 51.118-4.632 114.176-4.632z m94.414-51.51c66.1 0 119.694 3.162 119.694 7.072 0 3.902-53.594 7.062-119.694 7.062-66.11 0-119.704-3.162-119.704-7.062 0.002-3.91 53.594-7.072 119.704-7.072z m506.57-29.3c53.556 0 96.972 3.398 96.972 7.574 0 4.184-43.416 7.584-96.972 7.584-53.548 0-96.972-3.398-96.972-7.584 0-4.174 43.424-7.574 96.972-7.574z m-348.484 2.02c61.926 0 112.12 2.038 112.12 4.55 0 2.504-50.194 4.54-112.12 4.54s-112.13-2.038-112.13-4.54c0-2.512 50.204-4.55 112.13-4.55z" fill="#DFF3FD" /><path d="M761.214 64.684c-12.124 22.21-50.268 38.428-95.474 38.428-18.5 0-35.824-2.714-50.66-7.446-16.848 16.674-49.702 27.994-87.462 27.994-42.118 0-78.134-14.088-92.642-33.978-14.134 4.138-30.35 6.506-47.582 6.506-49.702 0-90.888-19.606-98.306-45.234C356.478 18.31 432.098 0 511.996 0c90.476 0 175.452 23.508 249.218 64.684z" fill="#F3FBF9" /></svg>